<svg width="40" height="40" viewBox="0 0 40 40" fill="none" xmlns="http://www.w3.org/2000/svg">
<path d="M17.7952 2.29418C16.2125 2.03183 14.4188 1.73445 12.741 2.42751C11.0633 3.12049 10.0023 4.5971 9.06622 5.89989C8.59747 6.55223 8.15475 7.16843 7.67328 7.64933C7.16031 8.16167 6.5233 8.6238 5.84895 9.11307C4.50172 10.0904 3.10858 11.1011 2.44154 12.707C1.7745 14.313 2.04164 16.0133 2.29999 17.6574C2.42931 18.4806 2.55152 19.258 2.55053 19.983C2.54962 20.6635 2.42558 21.4121 2.29415 22.2046C2.0318 23.7872 1.73449 25.581 2.42748 27.2587C3.12046 28.9363 4.59714 29.9974 5.89986 30.9334C6.5522 31.4022 7.1684 31.8449 7.64937 32.3265C8.16171 32.8394 8.62384 33.4764 9.11312 34.1508C10.0905 35.4981 11.1012 36.8912 12.7071 37.5582C14.313 38.2252 16.0133 37.958 17.6575 37.6997C18.4773 37.5709 19.2518 37.4492 19.9743 37.4492H19.983C19.9941 37.4492 20.0055 37.4499 20.0166 37.45L21.4229 19.3914L20.0166 2.55042C19.3362 2.54965 18.5876 2.42554 17.7952 2.29418Z" fill="#3D9BB7"/>
<path d="M24.9074 37.9998C25.6945 37.9998 26.489 37.8904 27.2588 37.5723C28.9364 36.8793 29.9974 35.4026 30.9335 34.0999C31.4023 33.4475 31.845 32.8313 32.3265 32.3504C32.8394 31.8381 33.4764 31.376 34.1508 30.8867C35.4981 29.9094 36.8912 28.8987 37.5582 27.2927C38.2252 25.6868 37.9581 23.9866 37.6997 22.3423C37.5704 21.5192 37.4482 20.7417 37.4492 20.0167C37.4501 19.3362 37.5742 18.5877 37.7056 17.7952C37.9679 16.2126 38.2652 14.4188 37.5723 12.7411V12.7411C36.8793 11.0634 35.4027 10.0024 34.0999 9.06637C33.4475 8.59762 32.8313 8.1549 32.3504 7.67329C31.838 7.16032 31.3759 6.52331 30.8866 5.84896C29.9093 4.50159 28.8987 3.10852 27.2927 2.44148C25.6867 1.77444 23.9864 2.04151 22.3422 2.29993C21.5224 2.42875 20.7479 2.55047 20.0254 2.55047C20.0225 2.55047 20.0196 2.55047 20.0167 2.55047V37.45C20.6884 37.4549 21.4251 37.5764 22.2047 37.7056C23.0611 37.8476 23.9792 37.9998 24.9074 37.9998Z" fill="#063988"/>
<path d="M20.0005 6.94434C12.8016 6.94434 6.94478 12.8011 6.94478 20.0001C6.94478 27.1991 12.8016 33.0559 20.0005 33.0559C20.0062 33.0559 20.0117 33.0556 20.0173 33.0556L20.7205 20.6588L20.0173 6.94455C20.0117 6.94448 20.0062 6.94434 20.0005 6.94434Z" fill="#063988"/>
<path d="M33.057 20.0001C33.057 12.8068 27.2093 6.95372 20.018 6.94458V33.0557C27.2092 33.0465 33.057 27.1935 33.057 20.0001Z" fill="#3D9BB7"/>
<path d="M18.9463 11.5031V14.5033H20.0011L20.7043 13.0989L20.0011 11.5031H18.9463Z" fill="#063988"/>
<path d="M20.0001 11.5031H21.0549V14.5033H20.0001V11.5031Z" fill="#0066FF" fill-opacity="0.81"/>
<path d="M17.6939 16.7522C16.5332 15.583 14.7166 15.3229 13.2525 16.1824C11.5932 17.1563 10.9716 19.265 11.8374 20.9832L14.7731 26.809H17.5724L17.6939 16.7522Z" fill="#063988"/>
<path d="M26.7504 16.1824C25.2861 15.3229 23.4695 15.5831 22.309 16.7522L22.6831 26.809H25.2297L28.1654 20.9832C29.0313 19.265 28.4097 17.1562 26.7504 16.1824Z" fill="#0066FF" fill-opacity="0.81"/>
<path d="M20.0007 13.4485C18.7556 13.4485 17.5825 13.9956 16.7823 14.9495C15.9821 15.9034 15.6473 17.1537 15.8647 18.3852L17.3977 26.8089H20.0007L20.7039 20.1755L20.0007 13.4485Z" fill="#0066FF" fill-opacity="0.81"/>
<path d="M24.1379 18.3798C24.3543 17.1536 24.0196 15.9033 23.2193 14.9494C22.4191 13.9956 21.2461 13.4485 20.001 13.4485V26.8089H22.6824L24.1379 18.3798Z" fill="#3D9BB7"/>
</svg>
