<svg width="21" height="21" viewBox="0 0 21 21" fill="none" xmlns="http://www.w3.org/2000/svg">
<path d="M9.34245 1.20449C8.51156 1.06676 7.56984 0.910635 6.689 1.27449C5.80823 1.63831 5.25119 2.41353 4.75975 3.09749C4.51366 3.43997 4.28123 3.76347 4.02846 4.01595C3.75915 4.28493 3.42472 4.52754 3.07069 4.78441C2.36339 5.29752 1.63199 5.82813 1.2818 6.67124C0.931602 7.51435 1.07185 8.40701 1.20748 9.2702C1.27537 9.70235 1.33954 10.1105 1.33902 10.4911C1.33854 10.8484 1.27342 11.2414 1.20442 11.6575C1.06668 12.4883 0.910596 13.4301 1.27441 14.3109C1.63823 15.1916 2.41349 15.7487 3.09741 16.2401C3.43989 16.4862 3.7634 16.7186 4.01591 16.9715C4.28489 17.2407 4.52751 17.5752 4.78437 17.9292C5.29748 18.6365 5.82809 19.3679 6.6712 19.7181C7.51432 20.0683 8.40697 19.928 9.27016 19.7924C9.70058 19.7248 10.1072 19.6609 10.4865 19.6609H10.4911C10.4969 19.6609 10.5029 19.6612 10.5087 19.6613L11.247 10.1805L10.5087 1.33902C10.1515 1.33861 9.7585 1.27346 9.34245 1.20449Z" fill="#FD6717"/>
<path d="M13.0763 19.95C13.4896 19.95 13.9067 19.8925 14.3108 19.7255C15.1916 19.3617 15.7486 18.5864 16.2401 17.9025C16.4861 17.56 16.7186 17.2365 16.9714 16.984C17.2407 16.715 17.5751 16.4725 17.9291 16.2156C18.6364 15.7025 19.3678 15.1719 19.718 14.3287C20.0682 13.4856 19.928 12.593 19.7923 11.7298C19.7244 11.2976 19.6603 10.8894 19.6608 10.5088C19.6613 10.1515 19.7264 9.75857 19.7954 9.34251C19.9331 8.51166 20.0892 7.5699 19.7254 6.68914V6.6891C19.3616 5.80833 18.5864 5.25133 17.9024 4.75989C17.5599 4.5138 17.2364 4.28137 16.9839 4.02852C16.7149 3.75921 16.4723 3.42478 16.2154 3.07075C15.7023 2.36338 15.1718 1.63202 14.3286 1.28182C13.4855 0.931626 12.5928 1.07184 11.7296 1.20751C11.2992 1.27514 10.8926 1.33904 10.5133 1.33904C10.5118 1.33904 10.5102 1.33904 10.5087 1.33904V19.6613C10.8614 19.6639 11.2481 19.7276 11.6574 19.7955C12.107 19.87 12.589 19.95 13.0763 19.95Z" fill="#FF4340"/>
<path d="M10.5003 3.64575C6.72081 3.64575 3.646 6.72057 3.646 10.5C3.646 14.2795 6.72081 17.3543 10.5003 17.3543C10.5032 17.3543 10.5061 17.3542 10.5091 17.3542L10.8783 10.8458L10.5091 3.64586C10.5061 3.64583 10.5032 3.64575 10.5003 3.64575Z" fill="#FF4340"/>
<path d="M17.3549 10.5C17.3549 6.72354 14.2849 3.65067 10.5095 3.64587V17.3542C14.2849 17.3494 17.3549 14.2765 17.3549 10.5Z" fill="#CF3634"/>
<path d="M9.94684 6.03918V7.61432H10.5006L10.8698 6.87702L10.5006 6.03918H9.94684Z" fill="#FDAE02"/>
<path d="M10.5001 6.03918H11.0538V7.61432H10.5001V6.03918Z" fill="#FD8C02"/>
<path d="M9.28929 8.79495C8.67994 8.18113 7.72623 8.04454 6.95754 8.49578C6.08641 9.00708 5.7601 10.1142 6.21462 11.0162L7.75587 14.0747H9.2255L9.28929 8.79495Z" fill="#FDAE02"/>
<path d="M14.044 8.4959C13.2752 8.04466 12.3215 8.18126 11.7122 8.79504L11.9086 14.0749H13.2456L14.7868 11.0163C15.2414 10.1143 14.9151 9.00716 14.044 8.4959Z" fill="#FD8C02"/>
<path d="M10.5004 7.06055C9.84668 7.06055 9.23083 7.34776 8.81071 7.84858C8.3906 8.34936 8.21484 9.00578 8.32899 9.65234L9.13381 14.0748H10.5004L10.8695 10.5923L10.5004 7.06055Z" fill="#FD8C02"/>
<path d="M12.6724 9.64946C12.786 9.00574 12.6103 8.34932 12.1902 7.84854C11.7701 7.34776 11.1542 7.06055 10.5005 7.06055V14.0748H11.9083L12.6724 9.64946Z" fill="#FD6717"/>
</svg>
