<svg width="36" height="36" viewBox="0 0 36 36" fill="none" xmlns="http://www.w3.org/2000/svg">
<path d="M18 0C27.941 0 36 8.05819 36 17.9985C36 27.9387 27.941 35.997 18 35.997C15.0871 35.997 12.2721 35.3033 9.74315 33.9955L2.85667 35.9165C1.65982 36.2507 0.418644 35.5515 0.0844381 34.3548C-0.0261719 33.9588 -0.0261178 33.54 0.0845102 33.1444L2.0063 26.2637C0.695466 23.7328 0 20.9148 0 17.9985C0 8.05819 8.05887 0 18 0ZM18 2.69977C9.55004 2.69977 2.7 9.54924 2.7 17.9985C2.7 20.6435 3.37099 23.1882 4.63145 25.4454L4.90262 25.9308L2.89973 33.1017L10.0756 31.0999L10.5608 31.3705C12.8161 32.6278 15.358 33.2972 18 33.2972C26.4499 33.2972 33.3 26.4477 33.3 17.9985C33.3 9.54924 26.4499 2.69977 18 2.69977ZM12.15 19.7983H20.2469C20.9925 19.7983 21.5969 20.4027 21.5969 21.1482C21.5969 21.8316 21.089 22.3964 20.43 22.4859L20.2469 22.4981H12.15C11.4044 22.4981 10.8 21.8937 10.8 21.1482C10.8 20.4648 11.3079 19.9 11.9668 19.8106L12.15 19.7983ZM12.15 13.4989H23.8581C24.6037 13.4989 25.2081 14.1032 25.2081 14.8487C25.2081 15.5321 24.7001 16.0969 24.0413 16.1864L23.8581 16.1986H12.15C11.4044 16.1986 10.8 15.5942 10.8 14.8487C10.8 14.1653 11.3079 13.6006 11.9668 13.5112L12.15 13.4989Z" fill="white"/>
</svg>
