<svg width="16" height="16" viewBox="0 0 16 16" fill="none" xmlns="http://www.w3.org/2000/svg">
<path d="M1.2 8C1.2 4.24446 4.24446 1.2 8 1.2C11.7555 1.2 14.8 4.24446 14.8 8C14.8 11.7555 11.7555 14.8 8 14.8C4.24446 14.8 1.2 11.7555 1.2 8ZM8 0C3.58172 0 0 3.58172 0 8C0 12.4182 3.58172 16 8 16C12.4182 16 16 12.4182 16 8C16 3.58172 12.4182 0 8 0ZM7.99448 3.71862C7.9548 3.42586 7.7036 3.2 7.4 3.2C7.0688 3.2 6.8 3.4688 6.8 3.8V8.6L6.80552 8.68136C6.8452 8.97416 7.0964 9.2 7.4 9.2H10.6L10.6814 9.19448C10.9742 9.1548 11.2 8.9036 11.2 8.6C11.2 8.2688 10.9312 8 10.6 8H8V3.8L7.99448 3.71862Z" fill="white"/>
</svg>
