<svg width="17" height="23" viewBox="0 0 17 23" fill="none" xmlns="http://www.w3.org/2000/svg">
<path d="M12.1685 15.7795H8.49952H4.77997L8.49952 19.2253L11.415 22.318L12.247 19.7026H15.4377L12.1685 15.7795Z" fill="#CD0000"/>
<path d="M8.50001 15.7795H4.83124L1.56183 19.7026H4.75574L5.60495 22.318L8.50001 19.2253L11.7256 15.7795H8.50001Z" fill="#FF80AA"/>
<path d="M8.50024 15.7795V19.2253L11.7258 15.7795H8.50024Z" fill="#FF3377"/>
<path d="M8.5 17.0872C13.1944 17.0872 17 13.2621 17 8.54359C17 3.82509 13.1944 0 8.5 0C3.80558 0 0 3.82509 0 8.54359C0 13.2621 3.80558 17.0872 8.5 17.0872Z" fill="#FFE666"/>
<path d="M17 8.54359C17 3.85682 13.1868 0 8.5 0V17.0872C13.1868 17.0872 17 13.2304 17 8.54359Z" fill="#FABE2C"/>
<path d="M8.49979 2.65894C5.25484 2.65894 2.61517 5.2986 2.61517 8.54355C2.61517 11.7885 5.25484 14.4718 8.49979 14.4718C11.7447 14.4718 14.3844 11.7885 14.3844 8.54355C14.3844 5.2986 11.7447 2.65894 8.49979 2.65894Z" fill="#FF80AA"/>
<path d="M14.3846 8.54355C14.3846 5.2986 11.745 2.65894 8.5 2.65894V14.4718C11.745 14.4718 14.3846 11.7885 14.3846 8.54355Z" fill="#FF3377"/>
<path d="M9.74959 5.95239C9.2841 5.95239 8.85439 6.10051 8.5 6.37382C8.14562 6.10051 7.71591 5.95239 7.25042 5.95239C6.19367 5.95239 5.23077 6.93826 5.23077 8.02055C5.23077 9.05367 6.10745 10.023 8.16288 11.2611L8.5 11.4648L8.83713 11.2611C10.8926 10.0229 11.7692 9.05367 11.7692 8.02055C11.7692 6.93826 10.8063 5.95239 9.74959 5.95239Z" fill="#FFE666"/>
<path d="M11.7692 8.02055C11.7692 6.93826 10.8063 5.95239 9.74959 5.95239C9.28409 5.95239 8.85438 6.10051 8.5 6.37382V11.4648L8.83712 11.2611C10.8926 10.0229 11.7692 9.05367 11.7692 8.02055Z" fill="#FABE2C"/>
</svg>
