<svg width="96" height="40" viewBox="0 0 96 40" fill="none" xmlns="http://www.w3.org/2000/svg">
<path d="M25.9177 27.4531H19.9995H13.9997L19.9995 33.0113L24.7024 38L26.0444 33.7812H31.1912L25.9177 27.4531Z" fill="#CD0000"/>
<path d="M19.9997 27.4531H14.0817L8.80801 33.7812H13.96L15.3298 38L19.9997 33.0113L25.2026 27.4531H19.9997Z" fill="#FF80AA"/>
<path d="M20.0004 27.4531V33.0113L25.2034 27.4531H20.0004Z" fill="#FF3377"/>
<path d="M20 29.5625C27.5723 29.5625 33.7109 23.3924 33.7109 15.7812C33.7109 8.17008 27.5723 2 20 2C12.4277 2 6.28906 8.17008 6.28906 15.7812C6.28906 23.3924 12.4277 29.5625 20 29.5625Z" fill="#FFE666"/>
<path d="M33.7109 15.7812C33.7109 8.22125 27.56 2 20 2V29.5625C27.56 29.5625 33.7109 23.3412 33.7109 15.7812Z" fill="#FABE2C"/>
<path d="M20 6.28906C14.7657 6.28906 10.5078 10.547 10.5078 15.7812C10.5078 21.0155 14.7657 25.3437 20 25.3437C25.2343 25.3437 29.4922 21.0155 29.4922 15.7812C29.4922 10.547 25.2343 6.28906 20 6.28906Z" fill="#FF80AA"/>
<path d="M29.4922 15.7812C29.4922 10.547 25.2343 6.28906 20 6.28906V25.3437C25.2343 25.3437 29.4922 21.0155 29.4922 15.7812Z" fill="#FF3377"/>
<path d="M22.0156 11.6016C21.2648 11.6016 20.5716 11.8405 20 12.2813C19.4284 11.8405 18.7352 11.6016 17.9844 11.6016C16.2798 11.6016 14.7266 13.1918 14.7266 14.9376C14.7266 16.6041 16.1407 18.1676 19.4562 20.1647L20 20.4933L20.5438 20.1647C23.8593 18.1676 25.2734 16.6041 25.2734 14.9376C25.2734 13.1918 23.7202 11.6016 22.0156 11.6016Z" fill="#FFE666"/>
<path d="M25.2734 14.9376C25.2734 13.1918 23.7202 11.6016 22.0156 11.6016C21.2648 11.6016 20.5716 11.8405 20 12.2813V20.4933L20.5438 20.1647C23.8593 18.1676 25.2734 16.6041 25.2734 14.9376Z" fill="#FABE2C"/>
<path d="M73.7952 2.29418C72.2125 2.03183 70.4188 1.73445 68.741 2.42751C67.0633 3.12049 66.0023 4.5971 65.0662 5.89989C64.5975 6.55223 64.1548 7.16843 63.6733 7.64933C63.1603 8.16167 62.5233 8.6238 61.8489 9.11307C60.5017 10.0904 59.1086 11.1011 58.4415 12.707C57.7745 14.313 58.0416 16.0133 58.3 17.6574C58.4293 18.4806 58.5515 19.258 58.5505 19.983C58.5496 20.6635 58.4256 21.4121 58.2942 22.2046C58.0318 23.7872 57.7345 25.581 58.4275 27.2587C59.1205 28.9363 60.5971 29.9974 61.8999 30.9334C62.5522 31.4022 63.1684 31.8449 63.6494 32.3265C64.1617 32.8394 64.6238 33.4764 65.1131 34.1508C66.0905 35.4981 67.1012 36.8912 68.7071 37.5582C70.313 38.2252 72.0133 37.958 73.6575 37.6997C74.4773 37.5709 75.2518 37.4492 75.9743 37.4492H75.983C75.9941 37.4492 76.0055 37.4499 76.0166 37.45L77.4229 19.3914L76.0166 2.55042C75.3362 2.54965 74.5876 2.42554 73.7952 2.29418Z" fill="#FD6717"/>
<path d="M80.9074 37.9998C81.6945 37.9998 82.489 37.8904 83.2588 37.5723C84.9364 36.8793 85.9974 35.4026 86.9335 34.0999C87.4022 33.4475 87.845 32.8313 88.3265 32.3504C88.8394 31.8381 89.4764 31.376 90.1508 30.8867C91.4981 29.9094 92.8912 28.8987 93.5582 27.2927C94.2252 25.6868 93.9581 23.9866 93.6997 22.3423C93.5704 21.5192 93.4482 20.7417 93.4492 20.0167C93.4501 19.3362 93.5741 18.5877 93.7056 17.7952C93.9679 16.2126 94.2652 14.4188 93.5722 12.7411V12.7411C92.8793 11.0634 91.4026 10.0024 90.0999 9.06637C89.4475 8.59762 88.8313 8.1549 88.3503 7.67329C87.838 7.16032 87.3759 6.52331 86.8866 5.84896C85.9093 4.50159 84.8986 3.10852 83.2927 2.44148C81.6867 1.77444 79.9864 2.04151 78.3422 2.29993C77.5223 2.42875 76.7479 2.55047 76.0253 2.55047C76.0225 2.55047 76.0196 2.55047 76.0167 2.55047V37.45C76.6884 37.4549 77.4251 37.5764 78.2047 37.7056C79.0611 37.8476 79.9792 37.9998 80.9074 37.9998Z" fill="#FF4340"/>
<path d="M76.0005 6.94434C68.8016 6.94434 62.9448 12.8011 62.9448 20.0001C62.9448 27.1991 68.8016 33.0559 76.0005 33.0559C76.0061 33.0559 76.0117 33.0556 76.0173 33.0556L76.7205 20.6588L76.0173 6.94455C76.0117 6.94448 76.0061 6.94434 76.0005 6.94434Z" fill="#FF4340"/>
<path d="M89.057 20.0001C89.057 12.8068 83.2093 6.95372 76.018 6.94458V33.0557C83.2092 33.0465 89.057 27.1935 89.057 20.0001Z" fill="#CF3634"/>
<path d="M74.9464 11.5031V14.5033H76.0011L76.7043 13.0989L76.0011 11.5031H74.9464Z" fill="#FDAE02"/>
<path d="M76.0002 11.5031H77.0549V14.5033H76.0002V11.5031Z" fill="#FD8C02"/>
<path d="M73.6939 16.7522C72.5332 15.583 70.7166 15.3229 69.2525 16.1824C67.5932 17.1563 66.9716 19.265 67.8374 20.9832L70.7731 26.809H73.5724L73.6939 16.7522Z" fill="#FDAE02"/>
<path d="M82.7504 16.1824C81.2861 15.3229 79.4695 15.5831 78.309 16.7522L78.6831 26.809H81.2298L84.1655 20.9832C85.0313 19.265 84.4097 17.1562 82.7504 16.1824Z" fill="#FD8C02"/>
<path d="M76.0007 13.4485C74.7556 13.4485 73.5825 13.9956 72.7823 14.9495C71.9821 15.9034 71.6473 17.1537 71.8647 18.3852L73.3978 26.8089H76.0007L76.7039 20.1755L76.0007 13.4485Z" fill="#FD8C02"/>
<path d="M80.1379 18.3798C80.3544 17.1536 80.0196 15.9033 79.2194 14.9494C78.4191 13.9956 77.2462 13.4485 76.001 13.4485V26.8089H78.6824L80.1379 18.3798Z" fill="#FD6717"/>
</svg>
