<svg width="25" height="25" viewBox="0 0 25 25" fill="none" xmlns="http://www.w3.org/2000/svg">
<path d="M20.9059 14.287C19.9398 13.7163 19.6054 12.4856 20.1513 11.5092C20.3305 11.194 20.5909 10.9319 20.9059 10.75C21.3847 10.4767 21.7343 10.0254 21.8777 9.49552C22.021 8.96567 21.9462 8.40091 21.6699 7.92592L20.9898 6.71296C20.7148 6.23717 20.2607 5.88969 19.7275 5.74724C19.1944 5.60478 18.6261 5.67907 18.1481 5.9537C17.6688 6.22876 17.0991 6.3033 16.5644 6.16091C16.0298 6.01852 15.5739 5.67087 15.2972 5.19444C15.116 4.87832 15.0198 4.52119 15.0177 4.15741C15.0201 3.60819 14.8023 3.08061 14.4124 2.69138C14.0225 2.30215 13.4927 2.08334 12.94 2.08334H11.5704C10.4214 2.08333 9.48858 3.00629 9.48345 4.14815C9.48735 4.88872 9.09187 5.57465 8.44701 5.94578C7.80215 6.31691 7.00667 6.3164 6.3623 5.94444C5.87994 5.65864 5.30171 5.57906 4.75936 5.72384C4.217 5.86862 3.75672 6.22542 3.48338 6.71296L2.8312 7.87962C2.26117 8.8696 2.60248 10.1312 3.59519 10.7037C4.59009 11.2796 4.92777 12.5474 4.34985 13.537C4.17309 13.8517 3.91182 14.1113 3.59519 14.287C3.11643 14.5602 2.76679 15.0116 2.62345 15.5415C2.48011 16.0713 2.55486 16.6361 2.8312 17.1111L3.48338 18.2962C4.06284 19.285 5.33855 19.6206 6.33435 19.0462C7.33119 18.4851 8.59667 18.8233 9.17599 19.8055C9.36037 20.1203 9.45686 20.4783 9.4555 20.8425C9.45547 21.3958 9.67791 21.9262 10.0733 22.3157C10.4688 22.7052 11.0044 22.9215 11.5611 22.9166H12.9307C14.0833 22.9166 15.0177 21.988 15.0177 20.8425C15.0102 20.2901 15.2258 19.7578 15.6162 19.3645C16.0067 18.9713 16.5394 18.7499 17.0953 18.75C17.462 18.7477 17.8224 18.8436 18.1388 19.0277C19.135 19.5942 20.4045 19.255 20.9805 18.2685L21.6699 17.0833C22.2265 16.1003 21.8864 14.8552 20.9059 14.287Z" fill="#F4F3FC"/>
<path d="M12.2506 15.1042C13.6601 15.1042 14.8028 13.9383 14.8028 12.5C14.8028 11.0618 13.6601 9.89584 12.2506 9.89584C10.841 9.89584 9.69836 11.0618 9.69836 12.5C9.69836 13.9383 10.841 15.1042 12.2506 15.1042Z" fill="#141D51"/>
</svg>
