<svg width="33" height="31" viewBox="0 0 33 31" fill="none" xmlns="http://www.w3.org/2000/svg">
<path d="M0 7.03689C0 3.15052 3.15052 0 7.03688 0L25.9632 0C29.8495 0 33 3.15052 33 7.03688V20.1054C33 23.9917 29.8495 27.1423 25.9632 27.1423H7.03688C3.15052 27.1423 0 23.9917 0 20.1054L0 7.03689Z" fill="#6E7191"/>
<g opacity="0.5">
<path d="M19.3253 16.5942H21.9104V19.6868L20.6178 20.4124L19.3253 21.1042V16.5942Z" fill="url(#paint0_linear_2_3131)"/>
<g filter="url(#filter0_d_2_3131)">
<path fill-rule="evenodd" clip-rule="evenodd" d="M21.9229 19.7341L19.314 21.1328V21.0757L21.9229 19.677V19.7341Z" fill="url(#paint1_linear_2_3131)"/>
<path fill-rule="evenodd" clip-rule="evenodd" d="M21.923 19.9624L19.3141 21.3611V21.1327L21.923 19.7341V19.9624Z" fill="url(#paint2_linear_2_3131)"/>
<path fill-rule="evenodd" clip-rule="evenodd" d="M21.923 20.0766L19.3141 21.4752V21.3611L21.923 19.9624V20.0766Z" fill="url(#paint3_linear_2_3131)"/>
</g>
<g filter="url(#filter1_f_2_3131)">
<path d="M19.3383 20.2193L21.4796 18.1356V18.4495L19.3383 21.2754V20.2193Z" fill="url(#paint4_linear_2_3131)"/>
</g>
<path fill-rule="evenodd" clip-rule="evenodd" d="M21.7499 17.3934V19.2825C21.6765 19.3024 21.6007 19.3528 21.5391 19.4208C21.4748 19.4918 21.4239 19.5843 21.4077 19.6861L19.8364 20.5396C19.7555 20.5744 19.6961 20.5786 19.6526 20.566C19.6082 20.553 19.5774 20.5216 19.5556 20.4788C19.5252 20.4192 19.5133 20.3395 19.5101 20.2648V20.1693C19.5102 20.1674 19.5103 20.1655 19.5104 20.1637L19.5101 20.1637V18.8207H19.4609V20.1676C19.4598 20.1971 19.4594 20.2311 19.4609 20.267V20.8066L19.8555 20.5923C19.8583 20.591 19.8611 20.5898 19.864 20.5885L19.8638 20.5878L21.4524 19.7249L21.4543 19.7096C21.4656 19.6176 21.5113 19.5304 21.573 19.4622C21.6348 19.3939 21.7105 19.3472 21.7785 19.3341L21.7991 19.3301V17.3934H21.7499ZM19.6737 20.628C19.6622 20.6266 19.6512 20.6244 19.6407 20.6213C19.5813 20.604 19.5404 20.5613 19.5132 20.5079C19.5122 20.5059 19.5111 20.5038 19.5101 20.5017V20.7168L19.6737 20.628Z" fill="url(#paint5_linear_2_3131)"/>
<g opacity="0.8" filter="url(#filter2_f_2_3131)">
<path d="M21.9227 17.8787V16.794L19.3384 18.2497V19.4486L21.9227 17.8787Z" fill="url(#paint6_linear_2_3131)"/>
</g>
</g>
<g opacity="0.5">
<path d="M13.7395 16.5942H11.1544V19.6868L12.447 20.4124L13.7395 21.1042V16.5942Z" fill="url(#paint7_linear_2_3131)"/>
<g filter="url(#filter3_d_2_3131)">
<path fill-rule="evenodd" clip-rule="evenodd" d="M11.1423 19.7341L13.7512 21.1328V21.0757L11.1423 19.677V19.7341Z" fill="url(#paint8_linear_2_3131)"/>
<path fill-rule="evenodd" clip-rule="evenodd" d="M11.1424 19.9624L13.7513 21.3611V21.1327L11.1424 19.7341V19.9624Z" fill="url(#paint9_linear_2_3131)"/>
<path fill-rule="evenodd" clip-rule="evenodd" d="M11.1424 20.0766L13.7513 21.4752V21.3611L11.1424 19.9624V20.0766Z" fill="url(#paint10_linear_2_3131)"/>
</g>
<g filter="url(#filter4_f_2_3131)">
<path d="M13.7269 20.2193L11.5856 18.1356V18.4495L13.7269 21.2754V20.2193Z" fill="url(#paint11_linear_2_3131)"/>
</g>
<path fill-rule="evenodd" clip-rule="evenodd" d="M11.3147 17.3934V19.2825C11.3881 19.3024 11.4639 19.3528 11.5255 19.4208C11.5898 19.4918 11.6407 19.5843 11.6569 19.6861L13.2262 20.5385C13.3083 20.5743 13.3685 20.5787 13.4124 20.566C13.4568 20.553 13.4877 20.5216 13.5094 20.4788C13.5385 20.4219 13.5506 20.3465 13.5544 20.2748V18.8207H13.6036V20.1608L13.6038 20.1608C13.6053 20.1945 13.6059 20.2347 13.6036 20.2771V20.8066L13.2071 20.5912C13.2051 20.5903 13.2031 20.5894 13.201 20.5885L13.2012 20.588L11.6122 19.7249L11.6103 19.7096C11.599 19.6176 11.5533 19.5304 11.4916 19.4622C11.4298 19.3939 11.3541 19.3472 11.286 19.3341L11.2655 19.3301V17.3934H11.3147ZM13.391 20.628C13.4026 20.6267 13.4137 20.6244 13.4244 20.6213C13.4838 20.604 13.5246 20.5613 13.5518 20.5079C13.5527 20.5062 13.5536 20.5045 13.5544 20.5027V20.7168L13.391 20.628Z" fill="url(#paint12_linear_2_3131)"/>
<g opacity="0.8" filter="url(#filter5_f_2_3131)">
<path d="M11.1423 17.8787V16.794L13.7266 18.2497V19.4486L11.1423 17.8787Z" fill="url(#paint13_linear_2_3131)"/>
</g>
</g>
<g opacity="0.5">
<path d="M14.1697 18.9919H18.8953V21.6751L16.5325 23.0452L14.1697 21.6751V18.9919Z" fill="url(#paint14_linear_2_3131)"/>
<path opacity="0.8" fill-rule="evenodd" clip-rule="evenodd" d="M17.3599 22.5654L16.5325 23.0452L14.1697 21.675V19.1631H14.8094C14.821 19.1934 14.8327 19.2238 14.8444 19.2542C15.3956 20.6874 16.0008 22.2613 17.3599 22.5654Z" fill="url(#paint15_linear_2_3131)"/>
<g opacity="0.8" filter="url(#filter6_f_2_3131)">
<path d="M16.557 21.1327L18.8705 19.7626V19.2488H14.2188V19.7626L16.557 21.1327Z" fill="url(#paint16_linear_2_3131)"/>
</g>
<g filter="url(#filter7_f_2_3131)">
<path d="M14.9327 20.3905C14.7031 20.8153 14.703 20.9329 14.9327 21.1898C14.8917 21.1898 14.8638 21.344 15.6711 21.9605C16.6802 22.7312 17.5662 21.989 18.1815 21.1898C18.7969 20.3906 18.6 20.3906 18.4523 20.6189C18.3046 20.8473 17.96 21.6465 16.7787 21.9605C15.5973 22.2745 15.8434 18.7064 14.9327 20.3905Z" fill="url(#paint17_linear_2_3131)"/>
</g>
<g filter="url(#filter8_d_2_3131)">
<path d="M16.5327 22.8739L14.17 21.5609V21.7607L16.5327 23.0738L18.8955 21.7607V21.5894L16.5327 22.8739Z" fill="url(#paint18_linear_2_3131)"/>
<path d="M16.5327 22.7027L14.17 21.3897V21.6466L16.5327 22.9025L18.8955 21.6466V21.4182L16.5327 22.7027Z" fill="url(#paint19_linear_2_3131)"/>
<path fill-rule="evenodd" clip-rule="evenodd" d="M18.8953 21.4182L16.5078 22.7343L14.1697 21.4182V21.3611L16.508 22.671L18.8953 21.3611V21.4182Z" fill="url(#paint20_linear_2_3131)"/>
</g>
<path fill-rule="evenodd" clip-rule="evenodd" d="M18.723 19.3344V21.1271L18.7037 21.1321C18.6222 21.1531 18.5592 21.2124 18.5161 21.2778C18.4947 21.3104 18.4785 21.3441 18.4678 21.3743C18.4569 21.4051 18.4523 21.4304 18.4523 21.4467V21.4654L16.5077 22.4485L14.5922 21.4387L14.5891 21.426C14.571 21.3527 14.5292 21.2879 14.4825 21.2361C14.436 21.1844 14.3863 21.1475 14.3556 21.1297L14.342 21.1218V19.3915H14.3912V21.087C14.4257 21.109 14.4724 21.1459 14.5166 21.1949C14.5642 21.2478 14.6103 21.3165 14.633 21.3975L16.5081 22.386L18.4041 21.4275C18.4065 21.4049 18.4129 21.3792 18.4223 21.3526C18.4346 21.3178 18.4529 21.2797 18.477 21.2432C18.5217 21.1751 18.5876 21.1105 18.6738 21.082V19.3344H18.723Z" fill="url(#paint21_linear_2_3131)"/>
<path fill-rule="evenodd" clip-rule="evenodd" d="M16.5313 21.1613V22.2745H16.4831V21.1613H16.5313Z" fill="url(#paint22_linear_2_3131)"/>
<path fill-rule="evenodd" clip-rule="evenodd" d="M16.3603 21.93C16.2623 22.061 16.1429 22.0902 16.0607 22.0743L16.0688 22.018C16.1343 22.0307 16.2365 22.0084 16.3231 21.8926C16.41 21.7763 16.4832 21.5628 16.4832 21.1898H16.5324C16.5324 21.5704 16.4579 21.7994 16.3603 21.93Z" fill="url(#paint23_linear_2_3131)"/>
<path fill-rule="evenodd" clip-rule="evenodd" d="M16.6553 21.93C16.7533 22.061 16.8726 22.0902 16.9548 22.0743L16.9467 22.018C16.8813 22.0307 16.7791 22.0085 16.6925 21.8926C16.6055 21.7763 16.5324 21.5629 16.5324 21.1898H16.4832C16.4832 21.5704 16.5577 21.7994 16.6553 21.93Z" fill="url(#paint24_linear_2_3131)"/>
<g opacity="0.8" filter="url(#filter9_f_2_3131)">
<path d="M16.5324 20.0195L18.8705 19.7626V19.2488H14.2188V19.7626L16.5324 20.0195Z" fill="url(#paint25_linear_2_3131)"/>
</g>
</g>
<g opacity="0.5">
<path d="M16.233 6.44113L10.0799 10.3231V19.1438L16.233 23.0257L22.386 19.1438L22.386 10.3231L16.233 6.44113Z" fill="url(#paint26_linear_2_3131)"/>
<path d="M16.2254 7.69705L11.015 10.9843V18.4537L16.2254 21.7409L21.4358 18.4537L21.4358 10.9843L16.2254 7.69705Z" fill="url(#paint27_linear_2_3131)"/>
<g filter="url(#filter10_f_2_3131)">
<path d="M16.2254 7.69705L11.015 10.9843V18.4537L16.2254 21.7409L21.4358 18.4537L21.4358 10.9843L16.2254 7.69705Z" fill="url(#paint28_linear_2_3131)"/>
</g>
</g>
<mask id="mask0_2_3131" style="mask-type:alpha" maskUnits="userSpaceOnUse" x="5" y="3" width="23" height="18">
<path d="M5.79748 3.01581H27.1092V20.1556H5.79748V3.01581Z" fill="#ABABAB"/>
</mask>
<g mask="url(#mask0_2_3131)">
<g opacity="0.5">
<path fill-rule="evenodd" clip-rule="evenodd" d="M22.3974 13.2358C22.5476 12.2925 22.215 11.5046 21.8448 11.0538L22.6127 9.22231L25.3058 3.4785C25.8924 4.77571 26.4424 8.2164 23.9493 11.6014C23.2542 12.5451 22.7526 13.043 22.3974 13.2358Z" fill="url(#paint29_linear_2_3131)"/>
<path fill-rule="evenodd" clip-rule="evenodd" d="M22.3974 13.2358C22.5476 12.2926 22.215 11.5046 21.8448 11.0538L22.6121 9.22369L25.3058 3.47852C25.8925 4.77573 26.4425 8.21641 23.9493 11.6015C23.2543 12.5452 22.7526 13.0431 22.3974 13.2358Z" fill="url(#paint30_linear_2_3131)"/>
<g filter="url(#filter11_d_2_3131)">
<path fill-rule="evenodd" clip-rule="evenodd" d="M21.8619 14.5488C22.5223 13.505 22.505 12.5363 22.2545 11.8244L26.3458 7.281C26.2525 9.54904 25.2318 14.1771 21.8953 14.5452C21.8841 14.5465 21.873 14.5477 21.8619 14.5488Z" fill="url(#paint31_linear_2_3131)"/>
</g>
<path fill-rule="evenodd" clip-rule="evenodd" d="M21.8814 14.5544C22.5418 13.5105 22.5245 12.5418 22.2739 11.8299L26.3651 7.2866C26.2718 9.55464 25.2511 14.1827 21.9146 14.5508C21.9035 14.5521 21.8924 14.5533 21.8814 14.5544Z" fill="url(#paint32_linear_2_3131)"/>
<path opacity="0.8" d="M24.0283 12.3517L22.4728 13.3523L22.3787 13.7174L24.0283 12.3517Z" fill="url(#paint33_linear_2_3131)"/>
<g filter="url(#filter12_d_2_3131)">
<path fill-rule="evenodd" clip-rule="evenodd" d="M20.5374 15.9932C21.5776 15.1713 22.1046 14.3457 22.3172 13.5974L26.1179 10.8096C25.9033 12.8227 24.4863 16.648 20.5374 15.9932Z" fill="url(#paint34_linear_2_3131)"/>
</g>
<path fill-rule="evenodd" clip-rule="evenodd" d="M20.5374 15.9932C21.5775 15.1714 22.1046 14.3458 22.3172 13.5975L26.118 10.8096C25.9034 12.8228 24.4864 16.6481 20.5374 15.9932Z" fill="url(#paint35_linear_2_3131)"/>
<path d="M24.2117 13.9561L21.8726 14.5732L21.6937 14.8644L24.2117 13.9561Z" fill="url(#paint36_linear_2_3131)"/>
<g filter="url(#filter13_d_2_3131)">
<path fill-rule="evenodd" clip-rule="evenodd" d="M21.7637 14.7309C21.2991 15.3933 20.5557 16.0815 19.4228 16.7501C18.985 17.0085 18.6079 17.2502 18.2846 17.4758L18.2541 17.5012C23.6736 17.8172 25.4101 14.9862 25.6082 13.5024L21.7637 14.7309Z" fill="url(#paint37_linear_2_3131)"/>
</g>
<path d="M21.9007 16.5788L20.6194 15.9112L20.362 16.1044L21.9007 16.5788Z" fill="url(#paint38_linear_2_3131)"/>
<path fill-rule="evenodd" clip-rule="evenodd" d="M20.517 16.0093C20.2009 16.2574 19.838 16.5051 19.4228 16.7502C18.4018 17.3528 17.7106 17.8643 17.2627 18.2943C17.3184 18.4241 17.6265 18.4086 18.0909 18.1345C19.0322 17.579 19.8665 17.4847 21.3353 17.56C22.7626 17.6333 23.2041 17.4792 23.4575 17.2231C22.8751 16.9694 21.4184 16.3674 20.517 16.0093Z" fill="url(#paint39_linear_2_3131)"/>
<path fill-rule="evenodd" clip-rule="evenodd" d="M20.517 16.0093C20.2009 16.2574 19.838 16.5051 19.4228 16.7502C18.4018 17.3528 17.7106 17.8643 17.2627 18.2943C17.3184 18.4241 17.6265 18.4086 18.0909 18.1345C19.0322 17.579 19.8665 17.4847 21.3353 17.56C22.7626 17.6333 23.2041 17.4792 23.4575 17.2231C22.8751 16.9694 21.4184 16.3674 20.517 16.0093Z" fill="url(#paint40_linear_2_3131)"/>
<path d="M19.6196 16.7696C23.3081 14.1386 22.8467 12.203 21.9537 10.9347L21.9106 11.0015C22.7102 12.5311 22.7594 14.1529 19.3778 16.4996C14.9195 19.3585 15.5523 20.367 15.6231 20.6966C15.6797 20.9604 15.9387 20.8818 16.0612 20.8095C16.1457 20.0787 16.2538 19.4577 19.6196 16.7696Z" fill="url(#paint41_linear_2_3131)"/>
<path d="M19.6196 16.7696C23.3081 14.1386 22.8467 12.203 21.9537 10.9347L21.9106 11.0015C22.8876 12.4471 23.0154 14.1669 19.3778 16.4996C14.9195 19.3585 15.5523 20.367 15.6231 20.6966C15.6797 20.9604 15.9387 20.8818 16.0612 20.8095C15.6473 20.4347 15.9961 19.3542 19.6196 16.7696Z" fill="url(#paint42_linear_2_3131)"/>
<path fill-rule="evenodd" clip-rule="evenodd" d="M19.3779 16.4996C19.5221 16.5221 19.7445 16.5403 19.9564 16.5332C20.7048 15.9673 21.2631 15.4282 21.6616 14.9349C21.7247 14.8472 21.7898 14.7672 21.8414 14.6948C21.7661 14.6754 21.6461 14.6876 21.5117 14.7656C21.0243 15.3015 20.3352 15.8847 19.3779 16.4996Z" fill="url(#paint43_linear_2_3131)"/>
</g>
<g opacity="0.5">
<path fill-rule="evenodd" clip-rule="evenodd" d="M10.4754 13.2358C10.3252 12.2925 10.6578 11.5046 11.028 11.0538L10.26 9.22231L7.56699 3.4785C6.98035 4.77571 6.43035 8.2164 8.92348 11.6014C9.6185 12.5451 10.1201 13.043 10.4754 13.2358Z" fill="url(#paint44_linear_2_3131)"/>
<path fill-rule="evenodd" clip-rule="evenodd" d="M10.4754 13.2358C10.3251 12.2926 10.6578 11.5046 11.028 11.0538L10.2606 9.22369L7.56692 3.47852C6.98028 4.77573 6.43029 8.21641 8.92342 11.6015C9.61849 12.5452 10.1201 13.0431 10.4754 13.2358Z" fill="url(#paint45_linear_2_3131)"/>
<g filter="url(#filter14_d_2_3131)">
<path fill-rule="evenodd" clip-rule="evenodd" d="M11.0108 14.5488C10.3505 13.505 10.3677 12.5363 10.6183 11.8244L6.52695 7.281C6.62024 9.54904 7.64097 14.1771 10.9775 14.5452C10.9886 14.5465 10.9998 14.5477 11.0108 14.5488Z" fill="url(#paint46_linear_2_3131)"/>
</g>
<path fill-rule="evenodd" clip-rule="evenodd" d="M10.9913 14.5544C10.331 13.5105 10.3483 12.5418 10.5989 11.8299L6.50762 7.2866C6.60092 9.55464 7.62164 14.1827 10.9582 14.5508C10.9693 14.5521 10.9803 14.5533 10.9913 14.5544Z" fill="url(#paint47_linear_2_3131)"/>
<path opacity="0.8" d="M8.84445 12.3517L10.3999 13.3523L10.494 13.7174L8.84445 12.3517Z" fill="url(#paint48_linear_2_3131)"/>
<g filter="url(#filter15_d_2_3131)">
<path fill-rule="evenodd" clip-rule="evenodd" d="M12.3353 15.9932C11.2952 15.1713 10.7681 14.3457 10.5555 13.5974L6.75485 10.8096C6.96944 12.8227 8.38645 16.648 12.3353 15.9932Z" fill="url(#paint49_linear_2_3131)"/>
</g>
<path fill-rule="evenodd" clip-rule="evenodd" d="M12.3353 15.9932C11.2952 15.1714 10.7682 14.3458 10.5555 13.5975L6.75476 10.8096C6.96935 12.8228 8.38638 16.6481 12.3353 15.9932Z" fill="url(#paint50_linear_2_3131)"/>
<path d="M8.66109 13.9561L11.0001 14.5732L11.179 14.8644L8.66109 13.9561Z" fill="url(#paint51_linear_2_3131)"/>
<g filter="url(#filter16_d_2_3131)">
<path fill-rule="evenodd" clip-rule="evenodd" d="M11.1093 14.731C11.574 15.3933 12.3173 16.0815 13.4502 16.7501C13.8873 17.0081 14.2639 17.2494 14.5869 17.4747L14.6187 17.5012C9.1991 17.8172 7.46269 14.9862 7.26451 13.5024L11.1093 14.731Z" fill="url(#paint52_linear_2_3131)"/>
</g>
<path d="M10.9718 16.5788L12.2531 15.9112L12.5105 16.1044L10.9718 16.5788Z" fill="url(#paint53_linear_2_3131)"/>
<path fill-rule="evenodd" clip-rule="evenodd" d="M12.3558 16.0093C12.6718 16.2574 13.0347 16.5051 13.45 16.7502C14.471 17.3528 15.1621 17.8643 15.61 18.2943C15.5544 18.4241 15.2463 18.4086 14.7819 18.1345C13.8406 17.579 13.0063 17.4847 11.5374 17.56C10.1101 17.6333 9.66868 17.4792 9.41522 17.2231C9.99761 16.9694 11.4543 16.3674 12.3558 16.0093Z" fill="url(#paint54_linear_2_3131)"/>
<path fill-rule="evenodd" clip-rule="evenodd" d="M12.3558 16.0093C12.6718 16.2574 13.0347 16.5051 13.45 16.7502C14.471 17.3528 15.1621 17.8643 15.61 18.2943C15.5544 18.4241 15.2463 18.4086 14.7819 18.1345C13.8406 17.579 13.0063 17.4847 11.5374 17.56C10.1101 17.6333 9.66868 17.4792 9.41522 17.2231C9.99761 16.9694 11.4543 16.3674 12.3558 16.0093Z" fill="url(#paint55_linear_2_3131)"/>
<path d="M13.2531 16.7696C9.5646 14.1386 10.0261 12.203 10.919 10.9347L10.9622 11.0015C10.1625 12.5311 10.1133 14.1529 13.495 16.4996C17.9532 19.3585 17.3204 20.367 17.2497 20.6966C17.193 20.9604 16.934 20.8818 16.8116 20.8095C16.7271 20.0787 16.619 19.4577 13.2531 16.7696Z" fill="url(#paint56_linear_2_3131)"/>
<path d="M13.2531 16.7696C9.5646 14.1386 10.0261 12.203 10.919 10.9347L10.9622 11.0015C9.98516 12.4471 9.85739 14.1669 13.495 16.4996C17.9532 19.3585 17.3204 20.367 17.2497 20.6966C17.193 20.9604 16.934 20.8818 16.8116 20.8095C17.2254 20.4347 16.8767 19.3542 13.2531 16.7696Z" fill="url(#paint57_linear_2_3131)"/>
<path fill-rule="evenodd" clip-rule="evenodd" d="M13.495 16.4996C13.3509 16.5221 13.1285 16.5403 12.9166 16.5332C12.1682 15.9673 11.6099 15.4282 11.2114 14.9349C11.1483 14.8472 11.0832 14.7672 11.0316 14.6948C11.1069 14.6754 11.2269 14.6876 11.3613 14.7656C11.8487 15.3015 12.5378 15.8847 13.495 16.4996Z" fill="url(#paint58_linear_2_3131)"/>
</g>
</g>
<mask id="mask1_2_3131" style="mask-type:alpha" maskUnits="userSpaceOnUse" x="15" y="20" width="3" height="4">
<path fill-rule="evenodd" clip-rule="evenodd" d="M16.2836 23.1212C16.2836 23.1212 16.2836 23.1212 16.2836 23.1212L16.2836 23.1212C16.2837 23.1212 16.2837 23.1212 16.2837 23.1212C16.2837 23.1212 16.2837 23.1212 16.2837 23.1212L16.7672 22.9131C17.1962 22.7286 17.3764 22.2173 17.1579 21.8046L16.2837 20.1528C16.2837 20.1528 16.2837 20.1528 16.2837 20.1528L16.2837 20.1527C16.2837 20.1526 16.2836 20.1526 16.2836 20.1527C16.2836 20.1527 16.2836 20.1527 16.2836 20.1527C16.2836 20.1526 16.2836 20.1526 16.2836 20.1527L16.2836 20.1528C16.2836 20.1528 16.2836 20.1528 16.2836 20.1528L15.4093 21.8046C15.1908 22.2173 15.371 22.7286 15.8 22.9131L16.2835 23.1212C16.2836 23.1212 16.2836 23.1212 16.2836 23.1212C16.2836 23.1212 16.2836 23.1212 16.2836 23.1212L16.2836 23.1212Z" fill="url(#paint59_linear_2_3131)"/>
</mask>
<g mask="url(#mask1_2_3131)">
<g opacity="0.5">
<path d="M16.2902 23.1833L17.5588 22.579L16.2902 19.9255L16.2902 23.1833Z" fill="url(#paint60_linear_2_3131)"/>
<path d="M16.29 23.1831L15.0214 22.5789L16.29 19.9253L16.29 23.1831Z" fill="url(#paint61_linear_2_3131)"/>
</g>
</g>
<path opacity="0.5" d="M16.2822 20.9417L16.8236 21.1701L16.5529 20.6563L16.2822 20.171L16.0114 20.6563L15.7407 21.1701L16.2822 20.9417Z" fill="url(#paint62_linear_2_3131)"/>
<path opacity="0.5" fill-rule="evenodd" clip-rule="evenodd" d="M16.0242 21.0506L16.4178 20.4209L16.6038 20.7641V20.9777L16.4917 21.03L16.2824 20.9417L16.0242 21.0506Z" fill="url(#paint63_linear_2_3131)"/>
<path opacity="0.5" fill-rule="evenodd" clip-rule="evenodd" d="M16.4978 22.3005L15.942 22.0176L16.065 22.0176L16.5081 22.2432L16.9511 22.0151H17.0597L16.5182 22.3005C16.5117 22.304 16.5043 22.3039 16.4978 22.3005Z" fill="url(#paint64_linear_2_3131)"/>
<defs>
<filter id="filter0_d_2_3131" x="15.2929" y="11.6348" width="10.6512" height="9.8404" filterUnits="userSpaceOnUse" color-interpolation-filters="sRGB">
<feFlood flood-opacity="0" result="BackgroundImageFix"/>
<feColorMatrix in="SourceAlpha" type="matrix" values="0 0 0 0 0 0 0 0 0 0 0 0 0 0 0 0 0 0 127 0" result="hardAlpha"/>
<feOffset dy="-4"/>
<feGaussianBlur stdDeviation="2"/>
<feColorMatrix type="matrix" values="0 0 0 0 0 0 0 0 0 0 0 0 0 0 0 0 0 0 0.25 0"/>
<feBlend mode="normal" in2="BackgroundImageFix" result="effect1_dropShadow_2_3131"/>
<feBlend mode="normal" in="SourceGraphic" in2="effect1_dropShadow_2_3131" result="shape"/>
</filter>
<filter id="filter1_f_2_3131" x="11.2961" y="10.0934" width="18.2255" height="19.2242" filterUnits="userSpaceOnUse" color-interpolation-filters="sRGB">
<feFlood flood-opacity="0" result="BackgroundImageFix"/>
<feBlend mode="normal" in="SourceGraphic" in2="BackgroundImageFix" result="shape"/>
<feGaussianBlur stdDeviation="4" result="effect1_foregroundBlur_2_3131"/>
</filter>
<filter id="filter2_f_2_3131" x="15.3173" y="12.7729" width="10.6264" height="10.6968" filterUnits="userSpaceOnUse" color-interpolation-filters="sRGB">
<feFlood flood-opacity="0" result="BackgroundImageFix"/>
<feBlend mode="normal" in="SourceGraphic" in2="BackgroundImageFix" result="shape"/>
<feGaussianBlur stdDeviation="2" result="effect1_foregroundBlur_2_3131"/>
</filter>
<filter id="filter3_d_2_3131" x="7.12119" y="11.6348" width="10.6512" height="9.8404" filterUnits="userSpaceOnUse" color-interpolation-filters="sRGB">
<feFlood flood-opacity="0" result="BackgroundImageFix"/>
<feColorMatrix in="SourceAlpha" type="matrix" values="0 0 0 0 0 0 0 0 0 0 0 0 0 0 0 0 0 0 127 0" result="hardAlpha"/>
<feOffset dy="-4"/>
<feGaussianBlur stdDeviation="2"/>
<feColorMatrix type="matrix" values="0 0 0 0 0 0 0 0 0 0 0 0 0 0 0 0 0 0 0.25 0"/>
<feBlend mode="normal" in2="BackgroundImageFix" result="effect1_dropShadow_2_3131"/>
<feBlend mode="normal" in="SourceGraphic" in2="effect1_dropShadow_2_3131" result="shape"/>
</filter>
<filter id="filter4_f_2_3131" x="3.54348" y="10.0934" width="18.2255" height="19.2242" filterUnits="userSpaceOnUse" color-interpolation-filters="sRGB">
<feFlood flood-opacity="0" result="BackgroundImageFix"/>
<feBlend mode="normal" in="SourceGraphic" in2="BackgroundImageFix" result="shape"/>
<feGaussianBlur stdDeviation="4" result="effect1_foregroundBlur_2_3131"/>
</filter>
<filter id="filter5_f_2_3131" x="7.12131" y="12.7729" width="10.6264" height="10.6968" filterUnits="userSpaceOnUse" color-interpolation-filters="sRGB">
<feFlood flood-opacity="0" result="BackgroundImageFix"/>
<feBlend mode="normal" in="SourceGraphic" in2="BackgroundImageFix" result="shape"/>
<feGaussianBlur stdDeviation="2" result="effect1_foregroundBlur_2_3131"/>
</filter>
<filter id="filter6_f_2_3131" x="10.1977" y="15.2277" width="12.6939" height="9.92608" filterUnits="userSpaceOnUse" color-interpolation-filters="sRGB">
<feFlood flood-opacity="0" result="BackgroundImageFix"/>
<feBlend mode="normal" in="SourceGraphic" in2="BackgroundImageFix" result="shape"/>
<feGaussianBlur stdDeviation="2" result="effect1_foregroundBlur_2_3131"/>
</filter>
<filter id="filter7_f_2_3131" x="6.71832" y="11.8945" width="19.9276" height="18.4326" filterUnits="userSpaceOnUse" color-interpolation-filters="sRGB">
<feFlood flood-opacity="0" result="BackgroundImageFix"/>
<feBlend mode="normal" in="SourceGraphic" in2="BackgroundImageFix" result="shape"/>
<feGaussianBlur stdDeviation="4" result="effect1_foregroundBlur_2_3131"/>
</filter>
<filter id="filter8_d_2_3131" x="11.1539" y="14.3242" width="10.7574" height="8.74958" filterUnits="userSpaceOnUse" color-interpolation-filters="sRGB">
<feFlood flood-opacity="0" result="BackgroundImageFix"/>
<feColorMatrix in="SourceAlpha" type="matrix" values="0 0 0 0 0 0 0 0 0 0 0 0 0 0 0 0 0 0 127 0" result="hardAlpha"/>
<feOffset dy="-4"/>
<feGaussianBlur stdDeviation="1.5"/>
<feColorMatrix type="matrix" values="0 0 0 0 0 0 0 0 0 0 0 0 0 0 0 0 0 0 0.25 0"/>
<feBlend mode="normal" in2="BackgroundImageFix" result="effect1_dropShadow_2_3131"/>
<feBlend mode="normal" in="SourceGraphic" in2="effect1_dropShadow_2_3131" result="shape"/>
</filter>
<filter id="filter9_f_2_3131" x="10.1977" y="15.2277" width="12.6939" height="8.81286" filterUnits="userSpaceOnUse" color-interpolation-filters="sRGB">
<feFlood flood-opacity="0" result="BackgroundImageFix"/>
<feBlend mode="normal" in="SourceGraphic" in2="BackgroundImageFix" result="shape"/>
<feGaussianBlur stdDeviation="2" result="effect1_foregroundBlur_2_3131"/>
</filter>
<filter id="filter10_f_2_3131" x="10.7134" y="7.39547" width="11.024" height="14.647" filterUnits="userSpaceOnUse" color-interpolation-filters="sRGB">
<feFlood flood-opacity="0" result="BackgroundImageFix"/>
<feBlend mode="normal" in="SourceGraphic" in2="BackgroundImageFix" result="shape"/>
<feGaussianBlur stdDeviation="0.15" result="effect1_foregroundBlur_2_3131"/>
</filter>
<filter id="filter11_d_2_3131" x="16.0422" y="3.40121" width="12.2435" height="15.0274" filterUnits="userSpaceOnUse" color-interpolation-filters="sRGB">
<feFlood flood-opacity="0" result="BackgroundImageFix"/>
<feColorMatrix in="SourceAlpha" type="matrix" values="0 0 0 0 0 0 0 0 0 0 0 0 0 0 0 0 0 0 127 0" result="hardAlpha"/>
<feOffset dx="-1.92973"/>
<feGaussianBlur stdDeviation="1.92973"/>
<feColorMatrix type="matrix" values="0 0 0 0 0.446731 0 0 0 0 0.444028 0 0 0 0 0.579167 0 0 0 0.12 0"/>
<feBlend mode="normal" in2="BackgroundImageFix" result="effect1_dropShadow_2_3131"/>
<feBlend mode="normal" in="SourceGraphic" in2="effect1_dropShadow_2_3131" result="shape"/>
</filter>
<filter id="filter12_d_2_3131" x="14.7178" y="6.92981" width="13.34" height="13.0176" filterUnits="userSpaceOnUse" color-interpolation-filters="sRGB">
<feFlood flood-opacity="0" result="BackgroundImageFix"/>
<feColorMatrix in="SourceAlpha" type="matrix" values="0 0 0 0 0 0 0 0 0 0 0 0 0 0 0 0 0 0 127 0" result="hardAlpha"/>
<feOffset dx="-1.92973"/>
<feGaussianBlur stdDeviation="1.92973"/>
<feColorMatrix type="matrix" values="0 0 0 0 0.446731 0 0 0 0 0.444028 0 0 0 0 0.579167 0 0 0 0.12 0"/>
<feBlend mode="normal" in2="BackgroundImageFix" result="effect1_dropShadow_2_3131"/>
<feBlend mode="normal" in="SourceGraphic" in2="effect1_dropShadow_2_3131" result="shape"/>
</filter>
<filter id="filter13_d_2_3131" x="8.55465" y="1.79236" width="26.7531" height="23.4222" filterUnits="userSpaceOnUse" color-interpolation-filters="sRGB">
<feFlood flood-opacity="0" result="BackgroundImageFix"/>
<feColorMatrix in="SourceAlpha" type="matrix" values="0 0 0 0 0 0 0 0 0 0 0 0 0 0 0 0 0 0 127 0" result="hardAlpha"/>
<feOffset dy="-2"/>
<feGaussianBlur stdDeviation="4.82432"/>
<feColorMatrix type="matrix" values="0 0 0 0 0.365689 0 0 0 0 0.351111 0 0 0 0 0.533333 0 0 0 0.2 0"/>
<feBlend mode="normal" in2="BackgroundImageFix" result="effect1_dropShadow_2_3131"/>
<feBlend mode="normal" in="SourceGraphic" in2="effect1_dropShadow_2_3131" result="shape"/>
</filter>
<filter id="filter14_d_2_3131" x="0.707198" y="3.40121" width="12.2435" height="15.0274" filterUnits="userSpaceOnUse" color-interpolation-filters="sRGB">
<feFlood flood-opacity="0" result="BackgroundImageFix"/>
<feColorMatrix in="SourceAlpha" type="matrix" values="0 0 0 0 0 0 0 0 0 0 0 0 0 0 0 0 0 0 127 0" result="hardAlpha"/>
<feOffset dx="-1.92973"/>
<feGaussianBlur stdDeviation="1.92973"/>
<feColorMatrix type="matrix" values="0 0 0 0 0.446731 0 0 0 0 0.444028 0 0 0 0 0.579167 0 0 0 0.12 0"/>
<feBlend mode="normal" in2="BackgroundImageFix" result="effect1_dropShadow_2_3131"/>
<feBlend mode="normal" in="SourceGraphic" in2="effect1_dropShadow_2_3131" result="shape"/>
</filter>
<filter id="filter15_d_2_3131" x="0.9352" y="6.92981" width="13.34" height="13.0176" filterUnits="userSpaceOnUse" color-interpolation-filters="sRGB">
<feFlood flood-opacity="0" result="BackgroundImageFix"/>
<feColorMatrix in="SourceAlpha" type="matrix" values="0 0 0 0 0 0 0 0 0 0 0 0 0 0 0 0 0 0 127 0" result="hardAlpha"/>
<feOffset dx="-1.92973"/>
<feGaussianBlur stdDeviation="1.92973"/>
<feColorMatrix type="matrix" values="0 0 0 0 0.446731 0 0 0 0 0.444028 0 0 0 0 0.579167 0 0 0 0.12 0"/>
<feBlend mode="normal" in2="BackgroundImageFix" result="effect1_dropShadow_2_3131"/>
<feBlend mode="normal" in="SourceGraphic" in2="effect1_dropShadow_2_3131" result="shape"/>
</filter>
<filter id="filter16_d_2_3131" x="-2.43496" y="1.79236" width="26.7531" height="23.4222" filterUnits="userSpaceOnUse" color-interpolation-filters="sRGB">
<feFlood flood-opacity="0" result="BackgroundImageFix"/>
<feColorMatrix in="SourceAlpha" type="matrix" values="0 0 0 0 0 0 0 0 0 0 0 0 0 0 0 0 0 0 127 0" result="hardAlpha"/>
<feOffset dy="-2"/>
<feGaussianBlur stdDeviation="4.82432"/>
<feColorMatrix type="matrix" values="0 0 0 0 0.365689 0 0 0 0 0.351111 0 0 0 0 0.533333 0 0 0 0.2 0"/>
<feBlend mode="normal" in2="BackgroundImageFix" result="effect1_dropShadow_2_3131"/>
<feBlend mode="normal" in="SourceGraphic" in2="effect1_dropShadow_2_3131" result="shape"/>
</filter>
<linearGradient id="paint0_linear_2_3131" x1="20.6178" y1="16.5942" x2="20.6178" y2="21.1042" gradientUnits="userSpaceOnUse">
<stop stop-color="#BFD9FF" stop-opacity="0.81"/>
<stop offset="0.484375" stop-color="white" stop-opacity="0.3"/>
<stop offset="0.666667" stop-color="white" stop-opacity="0.3"/>
</linearGradient>
<linearGradient id="paint1_linear_2_3131" x1="20.6185" y1="19.677" x2="20.6185" y2="21.1328" gradientUnits="userSpaceOnUse">
<stop stop-color="#BFD9FF" stop-opacity="0.81"/>
<stop offset="0.484375" stop-color="white" stop-opacity="0.3"/>
<stop offset="0.666667" stop-color="white" stop-opacity="0.3"/>
</linearGradient>
<linearGradient id="paint2_linear_2_3131" x1="20.6186" y1="19.7341" x2="20.6186" y2="21.3611" gradientUnits="userSpaceOnUse">
<stop stop-color="#BFD9FF" stop-opacity="0.81"/>
<stop offset="0.484375" stop-color="white" stop-opacity="0.3"/>
<stop offset="0.666667" stop-color="white" stop-opacity="0.3"/>
</linearGradient>
<linearGradient id="paint3_linear_2_3131" x1="20.6186" y1="19.9624" x2="20.6186" y2="21.4752" gradientUnits="userSpaceOnUse">
<stop stop-color="#BFD9FF" stop-opacity="0.81"/>
<stop offset="0.484375" stop-color="white" stop-opacity="0.3"/>
<stop offset="0.666667" stop-color="white" stop-opacity="0.3"/>
</linearGradient>
<linearGradient id="paint4_linear_2_3131" x1="20.4089" y1="18.1356" x2="20.4089" y2="21.2754" gradientUnits="userSpaceOnUse">
<stop stop-color="#BFD9FF" stop-opacity="0.81"/>
<stop offset="0.484375" stop-color="white" stop-opacity="0.3"/>
<stop offset="0.666667" stop-color="white" stop-opacity="0.3"/>
</linearGradient>
<linearGradient id="paint5_linear_2_3131" x1="20.6296" y1="17.3934" x2="20.6296" y2="20.8066" gradientUnits="userSpaceOnUse">
<stop stop-color="#BFD9FF" stop-opacity="0.81"/>
<stop offset="0.484375" stop-color="white" stop-opacity="0.3"/>
<stop offset="0.666667" stop-color="white" stop-opacity="0.3"/>
</linearGradient>
<linearGradient id="paint6_linear_2_3131" x1="20.6306" y1="16.794" x2="20.6306" y2="19.4486" gradientUnits="userSpaceOnUse">
<stop stop-color="#BFD9FF" stop-opacity="0.81"/>
<stop offset="0.484375" stop-color="white" stop-opacity="0.3"/>
<stop offset="0.666667" stop-color="white" stop-opacity="0.3"/>
</linearGradient>
<linearGradient id="paint7_linear_2_3131" x1="12.447" y1="16.5942" x2="12.447" y2="21.1042" gradientUnits="userSpaceOnUse">
<stop stop-color="#BFD9FF" stop-opacity="0.81"/>
<stop offset="0.484375" stop-color="white" stop-opacity="0.3"/>
<stop offset="0.666667" stop-color="white" stop-opacity="0.3"/>
</linearGradient>
<linearGradient id="paint8_linear_2_3131" x1="12.4467" y1="19.677" x2="12.4467" y2="21.1328" gradientUnits="userSpaceOnUse">
<stop stop-color="#BFD9FF" stop-opacity="0.81"/>
<stop offset="0.484375" stop-color="white" stop-opacity="0.3"/>
<stop offset="0.666667" stop-color="white" stop-opacity="0.3"/>
</linearGradient>
<linearGradient id="paint9_linear_2_3131" x1="12.4468" y1="19.7341" x2="12.4468" y2="21.3611" gradientUnits="userSpaceOnUse">
<stop stop-color="#BFD9FF" stop-opacity="0.81"/>
<stop offset="0.484375" stop-color="white" stop-opacity="0.3"/>
<stop offset="0.666667" stop-color="white" stop-opacity="0.3"/>
</linearGradient>
<linearGradient id="paint10_linear_2_3131" x1="12.4468" y1="19.9624" x2="12.4468" y2="21.4752" gradientUnits="userSpaceOnUse">
<stop stop-color="#BFD9FF" stop-opacity="0.81"/>
<stop offset="0.484375" stop-color="white" stop-opacity="0.3"/>
<stop offset="0.666667" stop-color="white" stop-opacity="0.3"/>
</linearGradient>
<linearGradient id="paint11_linear_2_3131" x1="12.6562" y1="18.1356" x2="12.6562" y2="21.2754" gradientUnits="userSpaceOnUse">
<stop stop-color="#BFD9FF" stop-opacity="0.81"/>
<stop offset="0.484375" stop-color="white" stop-opacity="0.3"/>
<stop offset="0.666667" stop-color="white" stop-opacity="0.3"/>
</linearGradient>
<linearGradient id="paint12_linear_2_3131" x1="12.4353" y1="17.3934" x2="12.4353" y2="20.8066" gradientUnits="userSpaceOnUse">
<stop stop-color="#BFD9FF" stop-opacity="0.81"/>
<stop offset="0.484375" stop-color="white" stop-opacity="0.3"/>
<stop offset="0.666667" stop-color="white" stop-opacity="0.3"/>
</linearGradient>
<linearGradient id="paint13_linear_2_3131" x1="12.4345" y1="16.794" x2="12.4345" y2="19.4486" gradientUnits="userSpaceOnUse">
<stop stop-color="#BFD9FF" stop-opacity="0.81"/>
<stop offset="0.484375" stop-color="white" stop-opacity="0.3"/>
<stop offset="0.666667" stop-color="white" stop-opacity="0.3"/>
</linearGradient>
<linearGradient id="paint14_linear_2_3131" x1="16.5325" y1="18.9919" x2="16.5325" y2="23.0452" gradientUnits="userSpaceOnUse">
<stop stop-color="#BFD9FF" stop-opacity="0.81"/>
<stop offset="0.484375" stop-color="white" stop-opacity="0.3"/>
<stop offset="0.666667" stop-color="white" stop-opacity="0.3"/>
</linearGradient>
<linearGradient id="paint15_linear_2_3131" x1="15.7649" y1="19.1631" x2="15.7649" y2="23.0452" gradientUnits="userSpaceOnUse">
<stop stop-color="#BFD9FF" stop-opacity="0.81"/>
<stop offset="0.484375" stop-color="white" stop-opacity="0.3"/>
<stop offset="0.666667" stop-color="white" stop-opacity="0.3"/>
</linearGradient>
<linearGradient id="paint16_linear_2_3131" x1="16.5447" y1="19.2488" x2="16.5447" y2="21.1327" gradientUnits="userSpaceOnUse">
<stop stop-color="#BFD9FF" stop-opacity="0.81"/>
<stop offset="0.484375" stop-color="white" stop-opacity="0.3"/>
<stop offset="0.666667" stop-color="white" stop-opacity="0.3"/>
</linearGradient>
<linearGradient id="paint17_linear_2_3131" x1="16.6821" y1="19.9367" x2="16.6821" y2="22.285" gradientUnits="userSpaceOnUse">
<stop stop-color="#BFD9FF" stop-opacity="0.81"/>
<stop offset="0.484375" stop-color="white" stop-opacity="0.3"/>
<stop offset="0.666667" stop-color="white" stop-opacity="0.3"/>
</linearGradient>
<linearGradient id="paint18_linear_2_3131" x1="16.5327" y1="21.5609" x2="16.5327" y2="23.0738" gradientUnits="userSpaceOnUse">
<stop stop-color="#BFD9FF" stop-opacity="0.81"/>
<stop offset="0.484375" stop-color="white" stop-opacity="0.3"/>
<stop offset="0.666667" stop-color="white" stop-opacity="0.3"/>
</linearGradient>
<linearGradient id="paint19_linear_2_3131" x1="16.5327" y1="21.3897" x2="16.5327" y2="22.9025" gradientUnits="userSpaceOnUse">
<stop stop-color="#BFD9FF" stop-opacity="0.81"/>
<stop offset="0.484375" stop-color="white" stop-opacity="0.3"/>
<stop offset="0.666667" stop-color="white" stop-opacity="0.3"/>
</linearGradient>
<linearGradient id="paint20_linear_2_3131" x1="16.5325" y1="21.3611" x2="16.5325" y2="22.7343" gradientUnits="userSpaceOnUse">
<stop stop-color="#BFD9FF" stop-opacity="0.81"/>
<stop offset="0.484375" stop-color="white" stop-opacity="0.3"/>
<stop offset="0.666667" stop-color="white" stop-opacity="0.3"/>
</linearGradient>
<linearGradient id="paint21_linear_2_3131" x1="16.5325" y1="19.3344" x2="16.5325" y2="22.4485" gradientUnits="userSpaceOnUse">
<stop stop-color="#BFD9FF" stop-opacity="0.81"/>
<stop offset="0.484375" stop-color="white" stop-opacity="0.3"/>
<stop offset="0.666667" stop-color="white" stop-opacity="0.3"/>
</linearGradient>
<linearGradient id="paint22_linear_2_3131" x1="16.5072" y1="21.1613" x2="16.5072" y2="22.2745" gradientUnits="userSpaceOnUse">
<stop stop-color="#BFD9FF" stop-opacity="0.81"/>
<stop offset="0.484375" stop-color="white" stop-opacity="0.3"/>
<stop offset="0.666667" stop-color="white" stop-opacity="0.3"/>
</linearGradient>
<linearGradient id="paint23_linear_2_3131" x1="16.2966" y1="21.1898" x2="16.2966" y2="22.0782" gradientUnits="userSpaceOnUse">
<stop stop-color="#BFD9FF" stop-opacity="0.81"/>
<stop offset="0.484375" stop-color="white" stop-opacity="0.3"/>
<stop offset="0.666667" stop-color="white" stop-opacity="0.3"/>
</linearGradient>
<linearGradient id="paint24_linear_2_3131" x1="16.719" y1="21.1898" x2="16.719" y2="22.0783" gradientUnits="userSpaceOnUse">
<stop stop-color="#BFD9FF" stop-opacity="0.81"/>
<stop offset="0.484375" stop-color="white" stop-opacity="0.3"/>
<stop offset="0.666667" stop-color="white" stop-opacity="0.3"/>
</linearGradient>
<linearGradient id="paint25_linear_2_3131" x1="16.5447" y1="19.2488" x2="16.5447" y2="20.0195" gradientUnits="userSpaceOnUse">
<stop stop-color="#BFD9FF" stop-opacity="0.81"/>
<stop offset="0.484375" stop-color="white" stop-opacity="0.3"/>
<stop offset="0.666667" stop-color="white" stop-opacity="0.3"/>
</linearGradient>
<linearGradient id="paint26_linear_2_3131" x1="16.233" y1="6.44113" x2="16.233" y2="23.0257" gradientUnits="userSpaceOnUse">
<stop stop-color="#BFD9FF" stop-opacity="0.81"/>
<stop offset="0.484375" stop-color="white" stop-opacity="0.3"/>
<stop offset="0.666667" stop-color="white" stop-opacity="0.3"/>
</linearGradient>
<linearGradient id="paint27_linear_2_3131" x1="16.2254" y1="7.69705" x2="16.2254" y2="21.7409" gradientUnits="userSpaceOnUse">
<stop stop-color="#BFD9FF" stop-opacity="0.81"/>
<stop offset="0.484375" stop-color="white" stop-opacity="0.3"/>
<stop offset="0.666667" stop-color="white" stop-opacity="0.3"/>
</linearGradient>
<linearGradient id="paint28_linear_2_3131" x1="16.2254" y1="7.69705" x2="16.2254" y2="21.7409" gradientUnits="userSpaceOnUse">
<stop stop-color="#BFD9FF" stop-opacity="0.81"/>
<stop offset="0.484375" stop-color="white" stop-opacity="0.3"/>
<stop offset="0.666667" stop-color="white" stop-opacity="0.3"/>
</linearGradient>
<linearGradient id="paint29_linear_2_3131" x1="25.288" y1="3.47392" x2="22.7491" y2="13.3265" gradientUnits="userSpaceOnUse">
<stop stop-color="#BFD9FF" stop-opacity="0.81"/>
<stop offset="0.484375" stop-color="white" stop-opacity="0.3"/>
<stop offset="0.666667" stop-color="white" stop-opacity="0.3"/>
</linearGradient>
<linearGradient id="paint30_linear_2_3131" x1="25.288" y1="3.47392" x2="22.7491" y2="13.3265" gradientUnits="userSpaceOnUse">
<stop stop-color="#BFD9FF" stop-opacity="0.81"/>
<stop offset="0.484375" stop-color="white" stop-opacity="0.3"/>
<stop offset="0.666667" stop-color="white" stop-opacity="0.3"/>
</linearGradient>
<linearGradient id="paint31_linear_2_3131" x1="25.1042" y1="6.96106" x2="23.0688" y2="14.8598" gradientUnits="userSpaceOnUse">
<stop stop-color="#BFD9FF" stop-opacity="0.81"/>
<stop offset="0.484375" stop-color="white" stop-opacity="0.3"/>
<stop offset="0.666667" stop-color="white" stop-opacity="0.3"/>
</linearGradient>
<linearGradient id="paint32_linear_2_3131" x1="25.1236" y1="6.96667" x2="23.0882" y2="14.8654" gradientUnits="userSpaceOnUse">
<stop stop-color="#BFD9FF" stop-opacity="0.81"/>
<stop offset="0.484375" stop-color="white" stop-opacity="0.3"/>
<stop offset="0.666667" stop-color="white" stop-opacity="0.3"/>
</linearGradient>
<linearGradient id="paint33_linear_2_3131" x1="23.4199" y1="12.1949" x2="22.9872" y2="13.8742" gradientUnits="userSpaceOnUse">
<stop stop-color="#BFD9FF" stop-opacity="0.81"/>
<stop offset="0.484375" stop-color="white" stop-opacity="0.3"/>
<stop offset="0.666667" stop-color="white" stop-opacity="0.3"/>
</linearGradient>
<linearGradient id="paint34_linear_2_3131" x1="24.1641" y1="10.3061" x2="22.564" y2="16.5154" gradientUnits="userSpaceOnUse">
<stop stop-color="#BFD9FF" stop-opacity="0.81"/>
<stop offset="0.484375" stop-color="white" stop-opacity="0.3"/>
<stop offset="0.666667" stop-color="white" stop-opacity="0.3"/>
</linearGradient>
<linearGradient id="paint35_linear_2_3131" x1="24.1641" y1="10.3061" x2="22.564" y2="16.5154" gradientUnits="userSpaceOnUse">
<stop stop-color="#BFD9FF" stop-opacity="0.81"/>
<stop offset="0.484375" stop-color="white" stop-opacity="0.3"/>
<stop offset="0.666667" stop-color="white" stop-opacity="0.3"/>
</linearGradient>
<linearGradient id="paint36_linear_2_3131" x1="23.1408" y1="13.6802" x2="22.7646" y2="15.1404" gradientUnits="userSpaceOnUse">
<stop stop-color="#BFD9FF" stop-opacity="0.81"/>
<stop offset="0.484375" stop-color="white" stop-opacity="0.3"/>
<stop offset="0.666667" stop-color="white" stop-opacity="0.3"/>
</linearGradient>
<linearGradient id="paint37_linear_2_3131" x1="22.6527" y1="12.7408" x2="21.2284" y2="18.2677" gradientUnits="userSpaceOnUse">
<stop stop-color="#BFD9FF" stop-opacity="0.81"/>
<stop offset="0.484375" stop-color="white" stop-opacity="0.3"/>
<stop offset="0.666667" stop-color="white" stop-opacity="0.3"/>
</linearGradient>
<linearGradient id="paint38_linear_2_3131" x1="21.2035" y1="16.0617" x2="21.1219" y2="16.3781" gradientUnits="userSpaceOnUse">
<stop stop-color="#BFD9FF" stop-opacity="0.81"/>
<stop offset="0.484375" stop-color="white" stop-opacity="0.3"/>
<stop offset="0.666667" stop-color="white" stop-opacity="0.3"/>
</linearGradient>
<linearGradient id="paint39_linear_2_3131" x1="20.7926" y1="16.0803" x2="20.0267" y2="19.0524" gradientUnits="userSpaceOnUse">
<stop stop-color="#BFD9FF" stop-opacity="0.81"/>
<stop offset="0.484375" stop-color="white" stop-opacity="0.3"/>
<stop offset="0.666667" stop-color="white" stop-opacity="0.3"/>
</linearGradient>
<linearGradient id="paint40_linear_2_3131" x1="20.7926" y1="16.0803" x2="20.0267" y2="19.0524" gradientUnits="userSpaceOnUse">
<stop stop-color="#BFD9FF" stop-opacity="0.81"/>
<stop offset="0.484375" stop-color="white" stop-opacity="0.3"/>
<stop offset="0.666667" stop-color="white" stop-opacity="0.3"/>
</linearGradient>
<linearGradient id="paint41_linear_2_3131" x1="20.6181" y1="10.5906" x2="17.8317" y2="21.4034" gradientUnits="userSpaceOnUse">
<stop stop-color="#BFD9FF" stop-opacity="0.81"/>
<stop offset="0.484375" stop-color="white" stop-opacity="0.3"/>
<stop offset="0.666667" stop-color="white" stop-opacity="0.3"/>
</linearGradient>
<linearGradient id="paint42_linear_2_3131" x1="20.6181" y1="10.5906" x2="17.8317" y2="21.4034" gradientUnits="userSpaceOnUse">
<stop stop-color="#BFD9FF" stop-opacity="0.81"/>
<stop offset="0.484375" stop-color="white" stop-opacity="0.3"/>
<stop offset="0.666667" stop-color="white" stop-opacity="0.3"/>
</linearGradient>
<linearGradient id="paint43_linear_2_3131" x1="20.9044" y1="14.4534" x2="20.3149" y2="16.741" gradientUnits="userSpaceOnUse">
<stop stop-color="#BFD9FF" stop-opacity="0.81"/>
<stop offset="0.484375" stop-color="white" stop-opacity="0.3"/>
<stop offset="0.666667" stop-color="white" stop-opacity="0.3"/>
</linearGradient>
<linearGradient id="paint44_linear_2_3131" x1="7.58475" y1="3.47392" x2="10.1237" y2="13.3265" gradientUnits="userSpaceOnUse">
<stop stop-color="#BFD9FF" stop-opacity="0.81"/>
<stop offset="0.484375" stop-color="white" stop-opacity="0.3"/>
<stop offset="0.666667" stop-color="white" stop-opacity="0.3"/>
</linearGradient>
<linearGradient id="paint45_linear_2_3131" x1="7.58475" y1="3.47392" x2="10.1237" y2="13.3265" gradientUnits="userSpaceOnUse">
<stop stop-color="#BFD9FF" stop-opacity="0.81"/>
<stop offset="0.484375" stop-color="white" stop-opacity="0.3"/>
<stop offset="0.666667" stop-color="white" stop-opacity="0.3"/>
</linearGradient>
<linearGradient id="paint46_linear_2_3131" x1="7.76851" y1="6.96106" x2="9.80397" y2="14.8598" gradientUnits="userSpaceOnUse">
<stop stop-color="#BFD9FF" stop-opacity="0.81"/>
<stop offset="0.484375" stop-color="white" stop-opacity="0.3"/>
<stop offset="0.666667" stop-color="white" stop-opacity="0.3"/>
</linearGradient>
<linearGradient id="paint47_linear_2_3131" x1="7.74912" y1="6.96667" x2="9.78458" y2="14.8654" gradientUnits="userSpaceOnUse">
<stop stop-color="#BFD9FF" stop-opacity="0.81"/>
<stop offset="0.484375" stop-color="white" stop-opacity="0.3"/>
<stop offset="0.666667" stop-color="white" stop-opacity="0.3"/>
</linearGradient>
<linearGradient id="paint48_linear_2_3131" x1="9.45287" y1="12.1949" x2="9.88559" y2="13.8742" gradientUnits="userSpaceOnUse">
<stop stop-color="#BFD9FF" stop-opacity="0.81"/>
<stop offset="0.484375" stop-color="white" stop-opacity="0.3"/>
<stop offset="0.666667" stop-color="white" stop-opacity="0.3"/>
</linearGradient>
<linearGradient id="paint49_linear_2_3131" x1="8.70867" y1="10.3061" x2="10.3088" y2="16.5154" gradientUnits="userSpaceOnUse">
<stop stop-color="#BFD9FF" stop-opacity="0.81"/>
<stop offset="0.484375" stop-color="white" stop-opacity="0.3"/>
<stop offset="0.666667" stop-color="white" stop-opacity="0.3"/>
</linearGradient>
<linearGradient id="paint50_linear_2_3131" x1="8.70867" y1="10.3061" x2="10.3088" y2="16.5154" gradientUnits="userSpaceOnUse">
<stop stop-color="#BFD9FF" stop-opacity="0.81"/>
<stop offset="0.484375" stop-color="white" stop-opacity="0.3"/>
<stop offset="0.666667" stop-color="white" stop-opacity="0.3"/>
</linearGradient>
<linearGradient id="paint51_linear_2_3131" x1="9.7319" y1="13.6802" x2="10.1082" y2="15.1404" gradientUnits="userSpaceOnUse">
<stop stop-color="#BFD9FF" stop-opacity="0.81"/>
<stop offset="0.484375" stop-color="white" stop-opacity="0.3"/>
<stop offset="0.666667" stop-color="white" stop-opacity="0.3"/>
</linearGradient>
<linearGradient id="paint52_linear_2_3131" x1="10.2201" y1="12.7408" x2="11.6443" y2="18.2677" gradientUnits="userSpaceOnUse">
<stop stop-color="#BFD9FF" stop-opacity="0.81"/>
<stop offset="0.484375" stop-color="white" stop-opacity="0.3"/>
<stop offset="0.666667" stop-color="white" stop-opacity="0.3"/>
</linearGradient>
<linearGradient id="paint53_linear_2_3131" x1="11.669" y1="16.0617" x2="11.7506" y2="16.3781" gradientUnits="userSpaceOnUse">
<stop stop-color="#BFD9FF" stop-opacity="0.81"/>
<stop offset="0.484375" stop-color="white" stop-opacity="0.3"/>
<stop offset="0.666667" stop-color="white" stop-opacity="0.3"/>
</linearGradient>
<linearGradient id="paint54_linear_2_3131" x1="12.0801" y1="16.0803" x2="12.846" y2="19.0524" gradientUnits="userSpaceOnUse">
<stop stop-color="#BFD9FF" stop-opacity="0.81"/>
<stop offset="0.484375" stop-color="white" stop-opacity="0.3"/>
<stop offset="0.666667" stop-color="white" stop-opacity="0.3"/>
</linearGradient>
<linearGradient id="paint55_linear_2_3131" x1="12.0801" y1="16.0803" x2="12.846" y2="19.0524" gradientUnits="userSpaceOnUse">
<stop stop-color="#BFD9FF" stop-opacity="0.81"/>
<stop offset="0.484375" stop-color="white" stop-opacity="0.3"/>
<stop offset="0.666667" stop-color="white" stop-opacity="0.3"/>
</linearGradient>
<linearGradient id="paint56_linear_2_3131" x1="12.2546" y1="10.5906" x2="15.041" y2="21.4034" gradientUnits="userSpaceOnUse">
<stop stop-color="#BFD9FF" stop-opacity="0.81"/>
<stop offset="0.484375" stop-color="white" stop-opacity="0.3"/>
<stop offset="0.666667" stop-color="white" stop-opacity="0.3"/>
</linearGradient>
<linearGradient id="paint57_linear_2_3131" x1="12.2546" y1="10.5906" x2="15.041" y2="21.4034" gradientUnits="userSpaceOnUse">
<stop stop-color="#BFD9FF" stop-opacity="0.81"/>
<stop offset="0.484375" stop-color="white" stop-opacity="0.3"/>
<stop offset="0.666667" stop-color="white" stop-opacity="0.3"/>
</linearGradient>
<linearGradient id="paint58_linear_2_3131" x1="11.9686" y1="14.4534" x2="12.5581" y2="16.741" gradientUnits="userSpaceOnUse">
<stop stop-color="#BFD9FF" stop-opacity="0.81"/>
<stop offset="0.484375" stop-color="white" stop-opacity="0.3"/>
<stop offset="0.666667" stop-color="white" stop-opacity="0.3"/>
</linearGradient>
<linearGradient id="paint59_linear_2_3131" x1="16.38" y1="20.959" x2="15.3337" y2="21.9734" gradientUnits="userSpaceOnUse">
<stop stop-color="#D5D7D9"/>
<stop offset="1" stop-color="#E2E3E7"/>
</linearGradient>
<linearGradient id="paint60_linear_2_3131" x1="16.9245" y1="23.1833" x2="16.9245" y2="19.9255" gradientUnits="userSpaceOnUse">
<stop stop-color="#BFD9FF" stop-opacity="0.81"/>
<stop offset="0.484375" stop-color="white" stop-opacity="0.3"/>
<stop offset="0.666667" stop-color="white" stop-opacity="0.3"/>
</linearGradient>
<linearGradient id="paint61_linear_2_3131" x1="15.6557" y1="23.1831" x2="15.6557" y2="19.9253" gradientUnits="userSpaceOnUse">
<stop stop-color="#BFD9FF" stop-opacity="0.81"/>
<stop offset="0.484375" stop-color="white" stop-opacity="0.3"/>
<stop offset="0.666667" stop-color="white" stop-opacity="0.3"/>
</linearGradient>
<linearGradient id="paint62_linear_2_3131" x1="16.2822" y1="20.171" x2="16.2822" y2="21.1701" gradientUnits="userSpaceOnUse">
<stop stop-color="#BFD9FF" stop-opacity="0.81"/>
<stop offset="0.484375" stop-color="white" stop-opacity="0.3"/>
<stop offset="0.666667" stop-color="white" stop-opacity="0.3"/>
</linearGradient>
<linearGradient id="paint63_linear_2_3131" x1="16.314" y1="20.4209" x2="16.314" y2="21.0506" gradientUnits="userSpaceOnUse">
<stop stop-color="#BFD9FF" stop-opacity="0.81"/>
<stop offset="0.484375" stop-color="white" stop-opacity="0.3"/>
<stop offset="0.666667" stop-color="white" stop-opacity="0.3"/>
</linearGradient>
<linearGradient id="paint64_linear_2_3131" x1="16.5008" y1="22.0151" x2="16.5008" y2="22.3031" gradientUnits="userSpaceOnUse">
<stop stop-color="#BFD9FF" stop-opacity="0.81"/>
<stop offset="0.484375" stop-color="white" stop-opacity="0.3"/>
<stop offset="0.666667" stop-color="white" stop-opacity="0.3"/>
</linearGradient>
</defs>
</svg>
