<svg width="14" height="15" viewBox="0 0 14 15" fill="none" xmlns="http://www.w3.org/2000/svg">
<path fill-rule="evenodd" clip-rule="evenodd" d="M5.988 14.8153C6.19877 14.9364 6.4376 15.0001 6.68066 15.0001C6.9234 15 7.16188 14.9363 7.37232 14.8153L12.6687 11.7566C13.0961 11.5086 13.3595 11.0522 13.3603 10.558V4.44251C13.3595 3.9481 13.0961 3.49135 12.6687 3.2429L7.37232 0.185153C6.9439 -0.0617178 6.41642 -0.0617178 5.988 0.185153L0.692661 3.2429C0.264681 3.49095 0.000866187 3.94784 0 4.44251L0 10.558C0.000812204 11.0524 0.264689 11.509 0.692661 11.7566L5.988 14.8153ZM3.7755 6.90195C3.84556 6.82929 3.94261 6.78895 4.04353 6.79053C4.14614 6.78778 4.24519 6.82821 4.31658 6.90195L5.96893 8.56133L10.0396 4.48668C10.1887 4.33852 10.4295 4.33852 10.5786 4.48668L11.1177 5.02474C11.2653 5.17412 11.2653 5.41444 11.1177 5.56381L6.77703 9.90348L6.23796 10.4426C6.08881 10.5907 5.84804 10.5907 5.69889 10.4426L5.16082 9.90348L3.23643 7.97909C3.08882 7.82971 3.08882 7.5894 3.23643 7.44002L3.7755 6.90195Z" fill="#7919C3"/>
</svg>
