<svg width="63" height="27" viewBox="0 0 63 27" fill="none" xmlns="http://www.w3.org/2000/svg">
<path d="M0 7C0 3.13401 3.13401 0 7 0L55.1053 0C58.9713 0 62.1053 3.13401 62.1053 7V20C62.1053 23.866 58.9713 27 55.1053 27H7C3.13401 27 0 23.866 0 20L0 7Z" fill="#6E7191"/>
<path d="M12.9755 7.00996C10.8509 7.00996 8.95267 4.45996 6.82804 4.45996H4.44648C2.57873 4.45996 1.06462 6.16655 1.06462 8.27172L1.06463 17.7287C1.06463 19.8338 2.57874 21.5404 4.4465 21.5404H6.82804C8.95267 21.5404 10.8509 18.9904 12.9755 18.9904C13.7533 18.9904 14.4421 19.4202 14.865 20.0805C15.328 20.8033 15.9883 21.5404 16.8467 21.5404C18.7144 21.5404 20.2285 19.8338 20.2285 17.7287V8.27173C20.2285 6.16655 18.7144 4.45996 16.8467 4.45996C15.9883 4.45996 15.328 5.19708 14.865 5.91989C14.4421 6.58021 13.7533 7.00996 12.9755 7.00996Z" fill="#6E7191"/>
</svg>
