<svg width="16" height="16" viewBox="0 0 16 16" fill="none" xmlns="http://www.w3.org/2000/svg">
<path d="M14.2222 0H1.77778C0.791111 0 0 0.8 0 1.77778V14.2222C0 15.2 0.791111 16 1.77778 16H14.2222C15.2089 16 16 15.2 16 14.2222V1.77778C16 0.8 15.2089 0 14.2222 0ZM8.44444 10.2222C7.21714 11.4495 5.2273 11.4495 4 10.2222L2.40488 8.6271C2.05854 8.28076 2.05854 7.71924 2.40488 7.3729C2.75088 7.0269 3.31173 7.02651 3.65821 7.37202L4.62667 8.33778C5.50823 9.21688 6.93522 9.21589 7.81556 8.33555L12.3378 3.81334C12.686 3.46514 13.2508 3.46614 13.5978 3.81556C13.943 4.16324 13.942 4.72466 13.5956 5.07112L8.44444 10.2222Z" fill="white" fill-opacity="0.8"/>
</svg>
