<svg width="16" height="16" viewBox="0 0 16 16" fill="none" xmlns="http://www.w3.org/2000/svg">
<path fill-rule="evenodd" clip-rule="evenodd" d="M7.99994 0.000968033C5.8707 -0.032774 3.82258 0.816862 2.34247 2.34789C0.815752 3.8283 -0.031597 5.87364 0.000901555 8C-0.031597 10.1264 0.815752 12.1717 2.34247 13.6521C3.82258 15.1831 5.8707 16.0328 7.99994 15.999C10.1292 16.0328 12.1773 15.1831 13.6574 13.6521C15.1841 12.1717 16.0315 10.1264 15.999 8C16.0315 5.87364 15.1841 3.8283 13.6574 2.34789C12.1773 0.816862 10.1292 -0.032774 7.99994 0.000968033ZM10.4934 8.939L11.3906 12.8074L7.98159 10.7795L4.60467 12.8074L5.50939 8.93685L2.51149 6.34581L6.44516 6.04495L7.98159 2.40465L9.51694 6.00748L13.4528 6.34796L10.4934 8.939Z" fill="#7919C3"/>
</svg>
