<svg width="317" height="367" viewBox="0 0 317 367" fill="none" xmlns="http://www.w3.org/2000/svg">
<rect x="317" y="366.657" width="48.8695" height="48.8695" rx="24.401" transform="rotate(180 317 366.657)" fill="white"/>
<path fill-rule="evenodd" clip-rule="evenodd" d="M293.369 350.471C297.179 350.053 300.188 347.044 300.606 343.234L301.608 343.233C301.855 343.248 302.096 343.156 302.271 342.981C302.446 342.806 302.538 342.565 302.523 342.318C302.538 342.071 302.446 341.83 302.271 341.655C302.096 341.48 301.855 341.388 301.608 341.403H300.606C300.187 337.593 297.178 334.586 293.368 334.169V333.161C293.383 332.914 293.291 332.673 293.116 332.498C292.942 332.323 292.7 332.231 292.453 332.246C292.206 332.231 291.965 332.323 291.79 332.498C291.615 332.673 291.523 332.914 291.538 333.161V334.169C287.7 334.526 284.661 337.565 284.304 341.403H283.296C283.049 341.388 282.808 341.48 282.633 341.655C282.458 341.83 282.366 342.071 282.381 342.318C282.366 342.565 282.458 342.807 282.633 342.982C282.808 343.157 283.049 343.249 283.296 343.234H284.304C284.66 347.073 287.7 350.114 291.539 350.471V351.473C291.524 351.72 291.616 351.961 291.791 352.136C291.966 352.311 292.207 352.403 292.454 352.388C292.701 352.403 292.943 352.311 293.117 352.136C293.292 351.961 293.384 351.72 293.369 351.473V350.471ZM298.866 342.319C298.866 345.859 295.997 348.728 292.457 348.728C290.754 348.738 289.118 348.067 287.914 346.862C286.71 345.658 286.038 344.022 286.048 342.319C286.048 338.78 288.918 335.91 292.457 335.91C295.997 335.91 298.866 338.78 298.866 342.319ZM292.457 345.981C290.434 345.981 288.794 344.341 288.794 342.318C288.794 340.295 290.434 338.655 292.457 338.655C294.48 338.655 296.12 340.295 296.12 342.318C296.115 344.339 294.478 345.976 292.457 345.981ZM294.286 342.316C294.287 343.327 293.468 344.148 292.457 344.15H292.454C291.444 344.147 290.625 343.328 290.623 342.318C290.623 341.307 291.442 340.487 292.453 340.487C293.464 340.486 294.284 341.305 294.286 342.316Z" fill="#7919C4"/>
<path opacity="0.25" d="M43.0595 234.324C66.8406 234.324 86.119 215.045 86.119 191.264C86.119 167.483 66.8406 148.205 43.0595 148.205C19.2784 148.205 0 167.483 0 191.264C0 215.045 19.2784 234.324 43.0595 234.324Z" fill="#7919C4"/>
<path opacity="0.5" d="M42.6569 219.209C58.1744 219.209 70.7537 206.63 70.7537 191.112C70.7537 175.595 58.1744 163.015 42.6569 163.015C27.1395 163.015 14.5601 175.595 14.5601 191.112C14.5601 206.63 27.1395 219.209 42.6569 219.209Z" fill="#7919C4"/>
<path d="M42.9734 205.602C50.8068 205.602 57.157 199.252 57.157 191.419C57.157 183.585 50.8068 177.235 42.9734 177.235C35.14 177.235 28.7898 183.585 28.7898 191.419C28.7898 199.252 35.14 205.602 42.9734 205.602Z" fill="#7919C4"/>
<path fill-rule="evenodd" clip-rule="evenodd" d="M47.8791 196.663C50.6073 194.119 50.7565 189.845 48.2124 187.117C45.6664 184.393 41.396 184.244 38.6662 186.783C35.938 189.328 35.7888 193.602 38.3328 196.33C40.8769 199.058 45.1509 199.207 47.8791 196.663ZM44.5926 195.25C43.1657 195.784 41.5579 195.405 40.5189 194.291C39.1029 192.769 39.1857 190.389 40.7041 188.969C41.8179 187.93 43.4482 187.664 44.8345 188.295C46.2208 188.927 47.0903 190.331 47.0373 191.854C46.9843 193.376 46.0194 194.717 44.5926 195.25Z" fill="white"/>
<path opacity="0.25" d="M276.883 303.419C293.198 303.419 306.423 290.193 306.423 273.878C306.423 257.564 293.198 244.338 276.883 244.338C260.568 244.338 247.342 257.564 247.342 273.878C247.342 290.193 260.568 303.419 276.883 303.419Z" fill="#7919C4"/>
<path opacity="0.5" d="M276.606 293.05C287.252 293.05 295.882 284.42 295.882 273.774C295.882 263.128 287.252 254.498 276.606 254.498C265.961 254.498 257.331 263.128 257.331 273.774C257.331 284.42 265.961 293.05 276.606 293.05Z" fill="#7919C4"/>
<path d="M276.823 283.715C282.198 283.715 286.554 279.358 286.554 273.984C286.554 268.61 282.198 264.254 276.823 264.254C271.449 264.254 267.093 268.61 267.093 273.984C267.093 279.358 271.449 283.715 276.823 283.715Z" fill="#7919C4"/>
<path fill-rule="evenodd" clip-rule="evenodd" d="M280.189 277.582C282.061 275.837 282.163 272.905 280.418 271.033C278.671 269.164 275.741 269.062 273.868 270.804C271.997 272.55 271.894 275.482 273.64 277.354C275.385 279.225 278.317 279.328 280.189 277.582ZM277.934 276.613C276.955 276.979 275.852 276.719 275.139 275.955C274.168 274.911 274.225 273.278 275.267 272.304C276.031 271.591 277.149 271.408 278.1 271.841C279.051 272.275 279.648 273.238 279.611 274.283C279.575 275.327 278.913 276.247 277.934 276.613Z" fill="white"/>
<path opacity="0.25" d="M271.375 73.1011C284.648 73.1011 295.408 62.341 295.408 49.0679C295.408 35.7947 284.648 25.0347 271.375 25.0347C258.102 25.0347 247.342 35.7947 247.342 49.0679C247.342 62.341 258.102 73.1011 271.375 73.1011Z" fill="#7919C4"/>
<path opacity="0.5" d="M271.151 64.6648C279.811 64.6648 286.832 57.6438 286.832 48.9829C286.832 40.322 279.811 33.301 271.151 33.301C262.49 33.301 255.469 40.322 255.469 48.9829C255.469 57.6438 262.49 64.6648 271.151 64.6648Z" fill="#7919C4"/>
<path d="M271.327 57.0704C275.699 57.0704 279.243 53.5261 279.243 49.1539C279.243 44.7818 275.699 41.2375 271.327 41.2375C266.955 41.2375 263.41 44.7818 263.41 49.1539C263.41 53.5261 266.955 57.0704 271.327 57.0704Z" fill="#7919C4"/>
<path fill-rule="evenodd" clip-rule="evenodd" d="M274.065 52.0811C275.588 50.6612 275.671 48.2757 274.251 46.753C272.83 45.2327 270.447 45.1495 268.923 46.5669C267.4 47.9869 267.317 50.3724 268.737 51.8951C270.157 53.4178 272.542 53.5011 274.065 52.0811ZM272.231 51.2925C271.434 51.5903 270.537 51.3791 269.957 50.7572C269.167 49.9079 269.213 48.579 270.06 47.7866C270.682 47.2066 271.592 47.0582 272.366 47.4106C273.14 47.7631 273.625 48.547 273.595 49.3967C273.566 50.2464 273.027 50.9947 272.231 51.2925Z" fill="white"/>
<path opacity="0.25" d="M50.0692 50.0692C63.8954 50.0692 75.1038 38.8608 75.1038 25.0346C75.1038 11.2084 63.8954 0 50.0692 0C36.243 0 25.0346 11.2084 25.0346 25.0346C25.0346 38.8608 36.243 50.0692 50.0692 50.0692Z" fill="#7919C4"/>
<path opacity="0.5" d="M49.8351 41.2814C58.8569 41.2814 66.1705 33.9678 66.1705 24.9461C66.1705 15.9243 58.8569 8.61071 49.8351 8.61071C40.8134 8.61071 33.4998 15.9243 33.4998 24.9461C33.4998 33.9678 40.8134 41.2814 49.8351 41.2814Z" fill="#7919C4"/>
<path d="M50.0191 33.3705C54.5734 33.3705 58.2654 29.6785 58.2654 25.1242C58.2654 20.5699 54.5734 16.8779 50.0191 16.8779C45.4648 16.8779 41.7728 20.5699 41.7728 25.1242C41.7728 29.6785 45.4648 33.3705 50.0191 33.3705Z" fill="#7919C4"/>
<path fill-rule="evenodd" clip-rule="evenodd" d="M52.8714 28.1734C54.4576 26.6943 54.5443 24.2094 53.0652 22.6233C51.585 21.0397 49.1022 20.953 47.5151 22.4295C45.9289 23.9086 45.8422 26.3935 47.3213 27.9796C48.8004 29.5658 51.2853 29.6525 52.8714 28.1734ZM50.9606 27.352C50.131 27.6622 49.1962 27.4421 48.5922 26.7944C47.7689 25.9096 47.817 24.5254 48.6998 23.7C49.3474 23.0958 50.2952 22.9412 51.1012 23.3084C51.9072 23.6755 52.4127 24.492 52.3819 25.3772C52.3511 26.2623 51.7901 27.0418 50.9606 27.352Z" fill="white"/>
</svg>
