<svg width="24" height="24" viewBox="0 0 24 24" fill="none" xmlns="http://www.w3.org/2000/svg">
<path d="M12.0404 9.68101L12.0404 9.68102C12.6323 10.8802 13.7763 11.7114 15.0997 11.9037L15.1901 11.9168L15.1247 11.9806C14.1671 12.914 13.7301 14.2589 13.9561 15.577L17.4058 14.9853L13.9561 15.577L13.9716 15.667L13.8908 15.6245C12.7071 15.0022 11.293 15.0022 10.1093 15.6245L10.0285 15.667L10.0439 15.577C10.27 14.2589 9.83296 12.914 8.87534 11.9806L6.49906 14.4184L8.87534 11.9806L8.80996 11.9168L8.90032 11.9037C10.2237 11.7114 11.3678 10.8802 11.9596 9.68101L8.8968 8.16943L11.9596 9.68101L12 9.59913L12.0404 9.68101Z" stroke="#FFF7F7" stroke-width="7" stroke-linejoin="round"/>
</svg>
